<svg xmlns="http://www.w3.org/2000/svg" xmlns:xlink="http://www.w3.org/1999/xlink" width="48" zoomAndPan="magnify" viewBox="0 0 36 36.000001" height="48" preserveAspectRatio="xMidYMid meet" version="1.2"><g id="87fbbce85c"><path style="fill:none;stroke-width:1.392;stroke-linecap:round;stroke-linejoin:round;stroke:#faf3dd;stroke-opacity:1;stroke-miterlimit:4;" d="M 20.000872 7.503213 C 18.533584 7.568576 15.520121 6.759426 15.200068 2.999923 L 12.400726 2.999923 L 12.400726 13.967394 C 12.400726 17.100313 9.932707 18.441383 8.289615 17.251324 C 6.202504 15.738958 7.599922 12.59477 10.200921 12.986948 L 10.200921 9.65794 C 8.199459 9.65794 4.000445 10.442297 4.000445 15.337765 C 4.000445 21.603603 10.813981 21.407514 12.400726 20.582587 C 14.979186 19.239263 15.599008 17.783245 15.599008 14.553408 C 15.599008 11.616578 15.599008 9.854029 15.599008 9.071926 C 16.266162 9.396488 18.08055 10.088435 20.000872 10.246207 " transform="matrix(1.733108,0,0,1.733108,-2.96836,-3.226535)"/></g></svg>