<svg xmlns="http://www.w3.org/2000/svg" xmlns:xlink="http://www.w3.org/1999/xlink" width="48" zoomAndPan="magnify" viewBox="0 0 36 36.000001" height="48" preserveAspectRatio="xMidYMid meet" version="1.2"><defs><clipPath id="81ad2693fd"><path d="M 0.488281 0 L 35.511719 0 L 35.511719 35.027344 L 0.488281 35.027344 Z M 0.488281 0 "/></clipPath></defs><g id="2dd21b5f30"><g clip-rule="nonzero" clip-path="url(#81ad2693fd)"><path style="fill:none;stroke-width:13.056;stroke-linecap:butt;stroke-linejoin:miter;stroke:#faf3dd;stroke-opacity:1;stroke-miterlimit:4;" d="M 95.998134 162.000997 C 81.853952 162.000997 71.657743 162.000997 63.72917 161.217928 C 55.882167 160.467487 50.857475 158.999233 46.844247 156.486887 C 42.21109 153.566693 38.426257 149.798174 35.522376 145.148702 C 32.993717 141.151788 31.541776 136.127096 30.775021 128.280093 C 30.008266 120.335207 29.991952 110.155312 29.991952 95.994816 C 29.991952 81.850634 30.008266 71.670739 30.775021 63.725852 C 31.541776 55.87885 32.993717 50.854158 35.522376 46.84093 C 38.426257 42.207772 42.21109 38.439253 46.844247 35.519059 C 50.857475 33.006713 55.882167 31.538459 63.72917 30.771704 C 71.657743 30.004949 81.853952 30.004949 95.998134 30.004949 C 110.158629 30.004949 120.338525 30.004949 128.283411 30.771704 C 136.130414 31.538459 141.138792 33.006713 145.15202 35.519059 C 149.785177 38.439253 153.57001 42.207772 156.473891 46.84093 C 159.002551 50.854158 160.454491 55.87885 161.221246 63.725852 C 161.988001 71.670739 162.004315 81.850634 162.004315 95.994816 C 162.004315 110.155312 161.988001 120.335207 161.221246 128.280093 C 160.454491 136.127096 159.002551 141.151788 156.473891 145.148702 C 153.57001 149.798174 149.785177 153.566693 145.15202 156.486887 C 141.138792 158.999233 136.130414 160.467487 128.283411 161.217928 C 120.338525 162.000997 110.158629 162.000997 95.998134 162.000997 Z M 95.998134 162.000997 " transform="matrix(0.239443,0,0,0.239443,-5.060255,-5.614149)"/><path style="fill:none;stroke-width:13.056;stroke-linecap:butt;stroke-linejoin:miter;stroke:#faf3dd;stroke-opacity:1;stroke-miterlimit:4;" d="M 125.99946 95.994816 C 125.99946 97.968802 125.803693 99.926474 125.428472 101.851519 C 125.036938 103.776563 124.46595 105.652665 123.715509 107.479826 C 122.965068 109.306987 122.035174 111.036264 120.94214 112.667658 C 119.849107 114.299051 118.609248 115.816247 117.206249 117.219245 C 115.819565 118.60593 114.302369 119.845789 112.670975 120.938823 C 111.023268 122.031856 109.293991 122.961751 107.483144 123.712192 C 105.655983 124.462633 103.779881 125.03362 101.854836 125.425155 C 99.913478 125.800375 97.97212 125.996142 95.998134 125.996142 C 94.024147 125.996142 92.082789 125.800375 90.141431 125.425155 C 88.216387 125.03362 86.340284 124.462633 84.513123 123.712192 C 82.702277 122.961751 80.972999 122.031856 79.325292 120.938823 C 77.693899 119.845789 76.176703 118.60593 74.790018 117.219245 C 73.38702 115.816247 72.147161 114.299051 71.054127 112.667658 C 69.961093 111.036264 69.031199 109.306987 68.280758 107.479826 C 67.530317 105.652665 66.959329 103.776563 66.584109 101.851519 C 66.192574 99.926474 65.996807 97.968802 65.996807 95.994816 C 65.996807 94.037144 66.192574 92.079472 66.584109 90.154427 C 66.959329 88.213069 67.530317 86.336966 68.280758 84.52612 C 69.031199 82.698959 69.961093 80.969682 71.054127 79.338288 C 72.147161 77.690581 73.38702 76.173385 74.790018 74.7867 C 76.176703 73.400016 77.693899 72.143843 79.325292 71.050809 C 80.972999 69.957776 82.702277 69.044195 84.513123 68.27744 C 86.340284 67.526999 88.216387 66.956012 90.141431 66.580791 C 92.082789 66.189257 94.024147 65.993489 95.998134 65.993489 C 97.97212 65.993489 99.913478 66.189257 101.854836 66.580791 C 103.779881 66.956012 105.655983 67.526999 107.483144 68.27744 C 109.293991 69.044195 111.023268 69.957776 112.670975 71.050809 C 114.302369 72.143843 115.819565 73.400016 117.206249 74.7867 C 118.609248 76.173385 119.849107 77.690581 120.94214 79.338288 C 122.035174 80.969682 122.965068 82.698959 123.715509 84.52612 C 124.46595 86.336966 125.036938 88.213069 125.428472 90.154427 C 125.803693 92.079472 125.99946 94.037144 125.99946 95.994816 Z M 125.99946 95.994816 " transform="matrix(0.239443,0,0,0.239443,-5.060255,-5.614149)"/></g><path style=" stroke:none;fill-rule:nonzero;fill:#faf3dd;fill-opacity:1;" d="M 29.417969 8.035156 C 29.417969 8.320312 29.363281 8.59375 29.253906 8.859375 C 29.144531 9.121094 28.992188 9.355469 28.789062 9.558594 C 28.585938 9.761719 28.351562 9.914062 28.089844 10.023438 C 27.824219 10.132812 27.550781 10.1875 27.265625 10.1875 C 26.980469 10.1875 26.703125 10.132812 26.441406 10.023438 C 26.175781 9.914062 25.941406 9.761719 25.742188 9.558594 C 25.539062 9.355469 25.382812 9.121094 25.273438 8.859375 C 25.164062 8.59375 25.109375 8.320312 25.109375 8.035156 C 25.109375 7.75 25.164062 7.472656 25.273438 7.210938 C 25.382812 6.945312 25.539062 6.710938 25.742188 6.511719 C 25.941406 6.308594 26.175781 6.152344 26.441406 6.042969 C 26.703125 5.933594 26.980469 5.878906 27.265625 5.878906 C 27.550781 5.878906 27.824219 5.933594 28.089844 6.042969 C 28.351562 6.152344 28.585938 6.308594 28.789062 6.511719 C 28.992188 6.710938 29.144531 6.945312 29.253906 7.210938 C 29.363281 7.472656 29.417969 7.75 29.417969 8.035156 Z M 29.417969 8.035156 "/></g></svg>