<svg xmlns="http://www.w3.org/2000/svg" xmlns:xlink="http://www.w3.org/1999/xlink" width="164" zoomAndPan="magnify" viewBox="0 0 123 25.5" height="34" preserveAspectRatio="xMidYMid meet" version="1.2"><defs><clipPath id="0506820cbf"><path d="M 1.183594 0 L 121.816406 0 L 121.816406 25 L 1.183594 25 Z M 1.183594 0 "/></clipPath></defs><g id="d34dd49239"><g clip-rule="nonzero" clip-path="url(#0506820cbf)"><path style=" stroke:none;fill-rule:nonzero;fill:#faf3dd;fill-opacity:1;" d="M 58.511719 16.957031 C 53.191406 14.464844 45.882812 11.179688 38.542969 8.503906 C 31.183594 5.832031 23.839844 4.613281 18.171875 4.601562 C 10.101562 4.601562 1.183594 8.679688 1.183594 13.824219 C 1.183594 19.167969 10.324219 23.292969 18.398438 23.292969 C 30.636719 23.292969 35.839844 17.007812 36.007812 16.839844 C 35.492188 17.292969 28.917969 20.871094 18.398438 20.875 C 10.820312 20.875 1.765625 18.988281 1.765625 13.824219 C 1.765625 7.828125 13.089844 6.773438 18.171875 6.777344 C 23.101562 6.765625 30.308594 8.734375 37.496094 11.363281 C 44.699219 13.988281 51.941406 16.863281 57.222656 19.332031 C 63.757812 22.382812 73.125 24.847656 81.808594 24.859375 L 81.820312 24.859375 C 87.539062 24.859375 92.027344 23.472656 96.015625 19.492188 C 92.824219 22.6875 87.078125 23.691406 81.808594 23.695312 C 73.867188 23.707031 64.746094 19.882812 58.511719 16.957031 Z M 86.777344 8.078125 C 86.777344 8.078125 86.777344 8.078125 86.808594 8.046875 Z M 104.421875 1.597656 C 92.179688 1.597656 86.972656 7.878906 86.808594 8.046875 C 87.324219 7.59375 93.902344 4.015625 104.421875 4.015625 C 112 4.015625 121.050781 5.898438 121.050781 11.0625 C 121.050781 17.0625 109.730469 18.117188 104.644531 18.109375 C 99.714844 18.125 92.507812 16.152344 85.316406 13.523438 C 78.113281 10.898438 70.875 8.027344 65.59375 5.554688 C 59.058594 2.503906 49.691406 0.0390625 41.007812 0.0273438 L 40.996094 0.0273438 C 35.277344 0.0273438 30.789062 1.417969 26.804688 5.394531 C 29.996094 2.199219 35.738281 1.195312 41.007812 1.191406 C 48.949219 1.179688 58.070312 5.003906 64.304688 7.929688 C 69.625 10.421875 76.929688 13.710938 84.277344 16.386719 C 91.636719 19.054688 98.976562 20.273438 104.644531 20.289062 C 112.714844 20.289062 121.632812 16.207031 121.632812 11.0625 C 121.632812 5.722656 112.488281 1.597656 104.421875 1.597656 "/></g></g></svg>