<svg xmlns="http://www.w3.org/2000/svg" xmlns:xlink="http://www.w3.org/1999/xlink" width="312" zoomAndPan="magnify" viewBox="0 0 234 401.249997" height="535" preserveAspectRatio="xMidYMid meet" version="1.2"><defs><clipPath id="30201b53a1"><path d="M 0.21875 0 L 232 0 L 232 399.753906 L 0.21875 399.753906 Z M 0.21875 0 "/></clipPath></defs><g id="f5fdf40740"><g clip-rule="nonzero" clip-path="url(#30201b53a1)"><path style=" stroke:none;fill-rule:nonzero;fill:#faf3dd;fill-opacity:1;" d="M 220.753906 141.351562 C 220.914062 141.269531 220.992188 141.589844 220.832031 141.667969 C 220.035156 141.90625 219.320312 142.308594 218.679688 142.785156 C 218.042969 143.183594 217.566406 143.820312 217.007812 144.21875 C 216.769531 144.382812 216.53125 144.058594 216.605469 143.820312 C 217.007812 143.183594 217.804688 142.625 218.441406 142.226562 C 219.082031 141.90625 219.878906 141.589844 220.753906 141.351562 Z M 176.023438 118.230469 C 175.707031 118.148438 175.785156 117.671875 176.105469 117.75 C 178.65625 118.070312 180.726562 116.554688 183.199219 116.3125 C 185.511719 116.15625 187.585938 117.429688 189.898438 117.671875 C 190.296875 117.671875 190.457031 118.304688 189.976562 118.386719 C 187.269531 118.867188 185.035156 116.792969 182.164062 117.351562 C 179.929688 117.671875 178.257812 118.707031 176.023438 118.230469 Z M 49.410156 344.183594 C 48.136719 348.886719 45.90625 353.195312 44.546875 357.898438 C 43.273438 362.363281 43.433594 366.988281 42.15625 371.453125 C 40.800781 375.917969 38.410156 380.222656 36.496094 384.449219 C 34.582031 388.753906 32.828125 393.296875 30.59375 397.445312 C 30.757812 397.605469 30.914062 397.765625 31.074219 398.003906 C 31.472656 398.5625 30.757812 399.359375 30.195312 399.199219 C 29.082031 398.878906 28.125 397.921875 27.246094 397.207031 C 26.371094 396.488281 25.574219 395.769531 24.695312 395.054688 C 24.378906 395.613281 23.417969 395.292969 23.65625 394.65625 C 25.730469 388.039062 27.964844 381.417969 30.277344 374.882812 C 30.035156 374.484375 30.195312 373.84375 30.675781 373.761719 C 35.617188 360.210938 41.28125 346.894531 47.660156 333.980469 C 47.898438 333.421875 48.695312 333.898438 48.457031 334.457031 C 42.316406 347.375 36.8125 360.53125 31.871094 373.84375 C 32.667969 373.925781 33.464844 373.925781 34.183594 373.761719 C 34.742188 373.605469 34.980469 374.484375 34.421875 374.640625 C 33.785156 374.882812 33.226562 375.039062 32.585938 375.121094 C 32.1875 375.199219 31.789062 375.199219 31.390625 375.121094 C 29.082031 381.339844 26.929688 387.640625 25.011719 394.015625 C 26.050781 394.65625 27.167969 395.214844 28.203125 395.851562 C 28.523438 396.089844 28.921875 396.25 29.238281 396.488281 C 30.757812 392.339844 32.828125 388.355469 34.660156 384.367188 C 36.894531 379.425781 39.925781 374.242188 40.882812 368.902344 C 42.476562 360.132812 43.671875 351.601562 48.613281 343.945312 C 48.933594 343.464844 49.570312 343.785156 49.410156 344.183594 Z M 198.75 184.40625 C 198.75 184.964844 197.953125 185.042969 197.792969 184.5625 C 196.914062 182.253906 192.128906 180.578125 189.976562 180.261719 C 188.542969 180.019531 186.871094 180.261719 185.195312 180.660156 C 185.59375 180.816406 185.910156 180.976562 186.074219 181.375 C 186.308594 181.855469 186.230469 181.933594 186.152344 182.570312 C 186.074219 183.128906 186.074219 183.527344 185.992188 184.007812 C 186.074219 183.925781 186.152344 183.925781 186.230469 183.847656 C 189.179688 183.527344 192.128906 183.609375 195.078125 184.085938 C 195.320312 184.164062 195.320312 184.5625 195.003906 184.5625 C 192.050781 184.324219 189.101562 184.324219 186.230469 184.644531 C 186.152344 184.644531 185.992188 184.644531 185.992188 184.5625 C 185.992188 184.882812 186.074219 185.203125 186.152344 185.519531 C 187.027344 185.679688 187.828125 185.761719 188.703125 185.601562 C 189.023438 185.519531 189.101562 186 188.863281 186.078125 C 188.066406 186.238281 187.1875 186.316406 186.390625 186.238281 C 186.472656 186.398438 186.472656 186.558594 186.550781 186.714844 C 187.105469 186.957031 187.984375 186.957031 188.382812 186.957031 C 189.261719 187.039062 190.058594 187.039062 190.933594 187.039062 C 191.332031 187.039062 191.253906 187.59375 190.933594 187.59375 C 189.738281 187.671875 188.464844 187.671875 187.269531 187.59375 C 187.1875 187.59375 187.027344 187.59375 186.949219 187.59375 C 187.1875 188.234375 187.269531 188.867188 186.871094 189.507812 C 186.707031 189.828125 186.308594 189.988281 186.152344 190.304688 C 186.074219 190.542969 186.074219 190.785156 185.992188 191.023438 C 186.390625 191.101562 186.871094 191.101562 187.425781 191.183594 C 191.175781 191.261719 194.203125 189.03125 196.996094 186.796875 C 197.3125 186.558594 197.710938 186.957031 197.472656 187.273438 C 194.363281 190.785156 189.179688 193.015625 184.953125 192.21875 C 184.796875 192.296875 184.636719 192.21875 184.476562 192.140625 C 181.6875 191.5 179.375 189.507812 178.335938 185.761719 C 178.175781 185.042969 179.132812 184.644531 179.453125 185.28125 C 180.890625 187.835938 182.324219 189.90625 184.875 190.785156 C 185.277344 190.226562 185.675781 189.429688 185.832031 189.109375 C 186.152344 188.46875 185.992188 187.753906 185.75 187.113281 C 185.75 187.113281 185.75 187.039062 185.675781 187.039062 C 185.675781 186.957031 185.675781 186.957031 185.675781 186.875 C 185.59375 186.636719 185.433594 186.316406 185.351562 186.078125 C 185.277344 186 185.113281 186 185.035156 185.917969 C 184.796875 185.839844 184.875 185.363281 185.195312 185.441406 C 185.035156 184.722656 185.035156 184.085938 185.035156 183.289062 C 185.035156 182.8125 185.277344 182.011719 184.796875 181.691406 C 184.636719 181.613281 184.238281 181.457031 183.839844 181.375 C 182.246094 181.933594 180.808594 182.730469 179.773438 183.6875 C 179.375 184.007812 178.734375 183.449219 179.132812 183.050781 C 180.171875 182.171875 181.527344 181.292969 182.882812 180.660156 C 182.960938 180.578125 183.042969 180.496094 183.199219 180.496094 L 183.28125 180.496094 C 185.75 179.460938 188.625 178.902344 191.09375 179.382812 C 193.328125 179.621094 198.75 181.214844 198.75 184.40625 Z M 207.4375 128.433594 C 205.84375 125.5625 206.324219 122.453125 206.480469 119.265625 C 206.640625 117.109375 206.164062 113.683594 207.519531 111.929688 C 208.875 110.097656 212.859375 108.503906 214.933594 107.863281 C 216.449219 107.382812 217.804688 107.226562 218.523438 108.738281 C 218.679688 109.058594 218.28125 109.457031 217.964844 109.136719 C 216.050781 107.226562 212.222656 109.617188 210.628906 110.8125 C 208.15625 112.648438 207.757812 114.402344 207.601562 117.191406 C 207.519531 118.785156 207.359375 120.378906 207.28125 121.976562 C 207.917969 121.496094 208.554688 121.894531 209.273438 122.214844 L 209.355469 122.214844 C 209.429688 119.265625 210.308594 116.3125 211.824219 113.761719 C 211.984375 113.445312 212.542969 113.683594 212.304688 114.082031 C 210.949219 116.792969 210.308594 119.425781 210.152344 122.453125 C 210.46875 122.53125 210.789062 122.613281 211.027344 122.691406 C 211.105469 122.691406 211.105469 122.773438 211.1875 122.773438 C 211.027344 121.257812 211.664062 119.742188 212.304688 118.386719 C 212.460938 118.148438 212.859375 118.304688 212.78125 118.546875 C 212.222656 120.0625 212.304688 121.578125 212.0625 123.171875 C 212.0625 123.171875 212.0625 123.171875 212.0625 123.253906 C 212.460938 123.488281 212.859375 123.730469 213.257812 123.570312 C 214.054688 123.253906 214.457031 122.375 215.410156 122.773438 C 215.492188 122.855469 215.574219 122.855469 215.652344 122.929688 C 217.085938 120.0625 218.601562 117.273438 220.117188 114.402344 C 220.277344 114.160156 220.675781 114.320312 220.59375 114.558594 C 219.398438 117.671875 217.964844 120.78125 216.289062 123.730469 C 216.449219 124.207031 216.53125 124.683594 216.53125 125.082031 C 217.964844 124.050781 219.320312 122.691406 220.59375 121.179688 C 222.507812 119.027344 222.984375 117.828125 222.667969 114.878906 C 222.585938 114.160156 221.789062 106.90625 218.921875 109.777344 C 218.523438 110.175781 217.964844 109.617188 218.363281 109.21875 C 222.828125 104.675781 223.945312 114.242188 223.945312 117.03125 C 223.945312 119.742188 221.230469 122.214844 219.480469 124.050781 C 217.566406 126.121094 215.09375 128.355469 212.0625 127.957031 C 211.585938 127.875 211.425781 127.15625 211.984375 127.078125 C 213.5 126.757812 214.777344 126.28125 215.972656 125.5625 C 215.808594 125.480469 215.730469 125.40625 215.730469 125.164062 C 215.730469 124.925781 215.730469 124.683594 215.652344 124.449219 C 215.410156 124.449219 215.175781 124.207031 215.253906 123.886719 C 215.09375 123.808594 214.933594 123.730469 214.695312 123.652344 C 214.535156 123.808594 214.296875 123.96875 214.136719 124.128906 C 213.980469 124.285156 213.816406 124.367188 213.65625 124.527344 C 213.257812 124.765625 212.859375 124.847656 212.460938 124.683594 C 211.425781 124.367188 211.027344 123.488281 209.832031 123.332031 C 209.753906 123.332031 208 123.011719 208.078125 122.855469 C 207.917969 123.089844 207.679688 123.171875 207.4375 123.089844 C 207.4375 124.765625 207.679688 126.359375 208.316406 127.957031 C 208.398438 128.59375 207.679688 128.832031 207.4375 128.433594 Z M 226.015625 145.335938 C 223.863281 146.609375 217.964844 149.402344 216.050781 146.691406 C 216.050781 146.691406 216.050781 146.773438 215.972656 146.773438 C 214.136719 148.285156 211.746094 148.683594 209.511719 149.003906 C 207.679688 149.242188 206.082031 149.484375 204.410156 150.199219 C 203.53125 150.519531 202.816406 150.917969 201.855469 150.996094 C 201.300781 151.078125 201.378906 150.199219 201.855469 150.199219 C 204.089844 149.960938 206.164062 148.605469 208.398438 148.285156 C 211.027344 147.886719 213.179688 147.089844 215.730469 146.375 C 215.808594 146.375 215.890625 146.375 215.890625 146.375 C 215.890625 146.210938 215.972656 146.054688 216.128906 145.894531 C 216.128906 145.734375 216.207031 145.65625 216.371094 145.578125 C 219.558594 144.21875 222.667969 143.34375 225.539062 141.191406 C 225.699219 141.03125 226.015625 141.351562 225.777344 141.507812 C 223.382812 143.421875 220.355469 145.414062 217.246094 146.054688 C 219.238281 147.332031 223.707031 145.335938 225.457031 144.457031 C 228.648438 142.863281 231.757812 140.394531 231.121094 136.40625 C 231.039062 136.007812 231.597656 135.847656 231.679688 136.246094 C 233.03125 140.15625 228.964844 143.582031 226.015625 145.335938 Z M 220.117188 135.050781 C 224.183594 132.421875 227.769531 131.703125 231.519531 135.050781 C 231.996094 135.449219 231.28125 136.085938 230.800781 135.769531 C 227.609375 133.21875 224.34375 133.695312 221.074219 135.769531 C 219.160156 136.964844 216.6875 139.199219 216.050781 141.589844 C 218.042969 139.277344 221.074219 137.761719 224.023438 137.363281 C 224.261719 137.363281 224.34375 137.683594 224.105469 137.761719 C 220.515625 138.480469 218.125 140.394531 215.890625 143.105469 C 215.890625 143.421875 215.972656 143.820312 216.128906 144.140625 C 216.289062 144.539062 215.808594 144.699219 215.492188 144.539062 C 215.492188 144.539062 215.492188 144.617188 215.410156 144.617188 C 213.417969 146.132812 210.867188 146.773438 208.554688 147.648438 C 206.5625 148.367188 204.570312 149.324219 202.496094 148.445312 C 202.097656 148.285156 202.335938 147.570312 202.734375 147.648438 L 202.734375 147.570312 C 203.214844 145.65625 203.773438 143.660156 204.570312 141.90625 C 205.207031 140.394531 206.324219 139.199219 206.804688 137.605469 C 207.835938 134.332031 208.554688 131.304688 210.789062 128.671875 C 211.1875 128.113281 211.984375 128.832031 211.664062 129.390625 C 210.550781 131.382812 209.355469 133.21875 208.554688 135.289062 C 208.15625 136.484375 208 137.839844 207.4375 139.035156 C 206.960938 139.996094 206.164062 140.792969 205.605469 141.75 C 204.488281 143.582031 203.851562 145.65625 203.292969 147.730469 L 203.292969 147.808594 C 205.367188 148.285156 207.679688 147.171875 209.671875 146.53125 C 211.585938 145.894531 213.5 145.414062 215.253906 144.382812 C 215.175781 144.21875 215.011719 143.980469 214.933594 143.820312 C 214.855469 143.742188 214.777344 143.660156 214.855469 143.503906 C 213.980469 140.15625 217.804688 136.566406 220.117188 135.050781 Z M 177.777344 186.558594 C 172.4375 186.238281 166.296875 185.839844 161.355469 187.992188 C 161.433594 188.152344 161.433594 188.390625 161.195312 188.550781 C 153.78125 193.015625 148.835938 200.113281 141.898438 205.054688 C 141.820312 205.132812 141.742188 205.132812 141.742188 205.132812 C 140.703125 206.011719 139.746094 206.96875 138.710938 207.84375 C 137.996094 208.484375 137.273438 209.199219 136.398438 209.761719 C 136.398438 209.996094 136.320312 210.160156 136 210.238281 C 135.761719 210.238281 135.519531 210.316406 135.363281 210.394531 C 135.363281 210.394531 135.28125 210.394531 135.28125 210.476562 C 135.203125 210.476562 135.121094 210.558594 135.042969 210.558594 C 131.535156 211.59375 128.824219 214.863281 125.953125 217.015625 C 123.164062 219.167969 120.214844 221.398438 117.023438 222.992188 C 118.859375 223.714844 120.691406 224.429688 122.445312 225.066406 C 125.316406 226.183594 127.945312 227.378906 129.621094 230.011719 C 129.863281 230.492188 129.222656 230.96875 128.902344 230.570312 C 125.792969 227.300781 121.890625 226.183594 117.742188 224.828125 C 113.675781 223.550781 109.609375 221.796875 105.382812 221.078125 C 100.761719 220.363281 97.410156 222.117188 93.1875 223.46875 C 89.757812 224.511719 86.167969 224.910156 82.660156 224.910156 C 82.023438 224.910156 81.863281 223.871094 82.5 223.792969 C 87.523438 223.070312 91.988281 222.355469 96.691406 220.523438 C 99.484375 219.40625 101.957031 219.085938 104.667969 219.328125 C 107.539062 217.335938 110.886719 217.652344 114.074219 216.539062 C 118.859375 214.941406 121.09375 211.355469 123.402344 207.207031 C 124.121094 205.851562 125.078125 204.976562 125.875 203.78125 C 127.46875 201.464844 127.789062 199.316406 127.707031 196.605469 C 127.707031 194.691406 127.628906 192.777344 127.308594 190.863281 C 125.15625 193.175781 121.328125 193.652344 118.699219 195.410156 C 118.460938 195.566406 118.140625 195.167969 118.378906 195.011719 C 119.65625 193.972656 121.09375 193.335938 122.523438 192.695312 C 124.121094 191.980469 125.554688 191.101562 126.992188 190.144531 C 127.070312 190.0625 127.148438 190.0625 127.148438 190.0625 C 126.671875 187.355469 125.714844 184.722656 123.882812 182.414062 C 123.484375 181.855469 124.199219 181.136719 124.597656 181.691406 C 127.308594 185.042969 128.269531 188.949219 128.585938 193.175781 C 128.585938 193.414062 128.585938 193.652344 128.667969 193.890625 C 128.902344 192.695312 129.222656 191.421875 129.699219 190.226562 C 131.058594 186.714844 132.09375 183.449219 132.8125 179.699219 C 132.015625 180.179688 131.136719 180.417969 130.097656 180.335938 C 129.699219 180.335938 129.542969 179.9375 129.621094 179.621094 C 129.542969 179.621094 129.382812 179.621094 129.300781 179.539062 C 129.464844 179.621094 129.542969 179.78125 129.542969 180.019531 C 129.300781 180.976562 128.984375 181.933594 128.824219 182.886719 C 128.585938 183.847656 128.503906 184.882812 128.269531 185.761719 C 128.105469 186.398438 127.070312 186.238281 127.148438 185.601562 C 127.230469 183.609375 127.945312 181.375 128.824219 179.621094 C 128.902344 179.460938 129.066406 179.382812 129.222656 179.382812 C 128.105469 178.902344 127.789062 177.46875 127.390625 176.351562 C 126.59375 173.800781 125.636719 171.089844 125.953125 168.460938 C 126.035156 167.902344 126.75 167.902344 126.832031 168.460938 C 127.230469 172.125 127.945312 175.953125 130.261719 178.902344 C 130.339844 178.984375 130.339844 179.0625 130.339844 179.140625 C 130.496094 179.140625 130.578125 179.140625 130.738281 179.0625 C 129.144531 175.710938 128.667969 171.808594 129.621094 168.21875 C 129.699219 167.980469 130.179688 167.980469 130.097656 168.300781 C 129.621094 171.964844 130.019531 175.3125 131.695312 178.664062 C 131.695312 178.742188 131.695312 178.742188 131.695312 178.824219 C 132.171875 178.664062 132.570312 178.425781 132.890625 178.1875 C 133.449219 175.792969 134.324219 173.5625 134.246094 171.011719 C 134.246094 170.691406 134.722656 170.691406 134.722656 171.011719 C 134.882812 172.761719 134.964844 174.679688 134.484375 176.433594 C 136.957031 172.6875 136.957031 166.066406 136.875 162.636719 C 136.875 162.558594 136.875 162.480469 136.875 162.480469 C 129.621094 163.835938 124.917969 172.6875 116.707031 169.015625 C 113.117188 167.421875 112.398438 165.667969 107.855469 165.507812 C 105.863281 165.429688 104.027344 165.507812 102.117188 165.03125 C 97.730469 163.992188 93.503906 161.523438 89.757812 159.050781 C 89.4375 158.890625 89.757812 158.410156 89.996094 158.570312 C 94.941406 161.203125 99.964844 164.3125 105.703125 164.472656 C 109.765625 164.632812 111.523438 164.3125 115.03125 166.542969 C 124.917969 172.921875 128.585938 161.203125 137.515625 161.441406 C 138.070312 161.441406 138.070312 162.160156 137.59375 162.320312 C 137.671875 162.398438 137.671875 162.398438 137.671875 162.480469 C 138.710938 166.625 137.671875 176.191406 133.210938 179.300781 C 133.847656 182.96875 132.414062 186.398438 131.21875 189.828125 C 130.261719 192.378906 129.464844 194.769531 129.144531 197.480469 C 128.902344 199.074219 128.984375 200.03125 128.269531 201.464844 C 128.1875 201.625 128.105469 201.707031 128.027344 201.707031 C 127.707031 202.503906 127.390625 203.21875 126.832031 203.9375 C 125.554688 205.613281 124.519531 207.605469 123.402344 209.441406 C 123.484375 209.441406 123.484375 209.363281 123.5625 209.363281 C 130.660156 206.011719 136.875 201.941406 142.777344 196.765625 C 146.84375 193.175781 150.910156 190.0625 155.773438 187.835938 C 157.128906 185.203125 158.882812 182.886719 161.273438 181.058594 C 163.90625 178.984375 166.855469 178.265625 169.167969 175.710938 C 171.324219 173.402344 173.316406 171.25 175.707031 169.175781 C 178.335938 166.941406 180.410156 164.3125 182.800781 162 C 183.121094 161.683594 183.441406 161.441406 183.839844 161.203125 C 185.113281 161.042969 186.074219 160.40625 186.707031 159.367188 C 187.269531 158.652344 187.902344 157.933594 188.542969 157.214844 C 191.332031 154.109375 193.25 150.917969 195.402344 147.410156 C 199.148438 141.269531 204.886719 136.328125 207.28125 129.390625 C 207.359375 129.070312 207.835938 129.230469 207.757812 129.550781 C 205.605469 136.328125 200.824219 141.03125 196.996094 146.773438 C 195.558594 149.003906 194.523438 151.558594 192.929688 153.628906 C 190.933594 156.339844 187.984375 158.96875 185.511719 161.285156 C 180.96875 165.585938 175.945312 169.894531 171.722656 174.597656 C 169.40625 177.148438 168.53125 178.585938 165.5 180.179688 C 161.433594 182.253906 158.644531 185.121094 156.648438 189.1875 C 156.332031 189.90625 155.375 189.507812 155.296875 188.867188 C 149.714844 191.898438 145.246094 195.726562 140.546875 200.113281 C 135.761719 204.65625 130.097656 207.84375 124.042969 210.476562 C 123.484375 210.714844 123.085938 210.238281 123.085938 209.839844 C 121.890625 211.832031 120.613281 213.746094 118.777344 215.179688 C 114.871094 218.289062 110.246094 217.890625 105.941406 219.484375 C 106.5 219.566406 107.140625 219.726562 107.773438 219.882812 C 108.492188 220.042969 109.210938 220.28125 109.929688 220.523438 C 109.929688 220.441406 109.929688 220.363281 109.929688 220.28125 C 110.167969 219.085938 111.363281 218.367188 112.480469 217.96875 C 112.957031 217.8125 113.195312 218.53125 112.796875 218.769531 C 112 219.246094 111.84375 220.203125 111.523438 221 C 111.523438 221 111.523438 221 111.523438 221.078125 C 113.039062 221.558594 114.550781 222.117188 116.066406 222.671875 C 115.988281 222.4375 115.988281 222.195312 116.226562 222.039062 C 119.894531 219.246094 123.800781 216.855469 127.46875 213.984375 C 129.699219 212.230469 131.695312 210.238281 134.40625 209.515625 C 135.203125 208.402344 136.476562 207.523438 137.59375 206.648438 C 138.632812 205.851562 139.589844 205.054688 140.625 204.257812 C 140.703125 204.097656 140.785156 203.9375 140.945312 203.78125 C 147.800781 198.996094 153.0625 192.058594 160.398438 187.992188 C 160.160156 187.753906 160.160156 187.355469 160.476562 187.195312 C 165.261719 184.964844 172.675781 184.5625 177.699219 186 C 178.175781 186 178.175781 186.636719 177.777344 186.558594 Z M 201.222656 151.558594 C 195.558594 157.136719 189.738281 162.398438 184.554688 168.378906 C 181.925781 171.410156 178.65625 173.160156 175.785156 175.875 C 173.074219 178.425781 170.601562 181.214844 167.972656 183.765625 C 171.480469 184.40625 174.671875 183.847656 178.257812 183.128906 C 178.574219 183.050781 178.734375 183.609375 178.417969 183.6875 C 176.34375 184.164062 174.191406 184.804688 172.121094 185.121094 C 170.203125 185.363281 168.371094 184.964844 166.539062 184.484375 C 165.898438 184.324219 166.21875 183.367188 166.773438 183.527344 C 166.9375 183.609375 167.097656 183.609375 167.253906 183.609375 C 169.964844 180.578125 172.675781 177.46875 175.707031 174.679688 C 178.417969 172.207031 181.527344 170.53125 184 167.660156 C 189.101562 161.601562 194.203125 155.621094 200.503906 150.597656 C 200.902344 150.199219 201.777344 150.996094 201.222656 151.558594 Z M 101.558594 41.921875 C 100.996094 36.664062 110.566406 36.503906 113.835938 37.378906 C 114.074219 37.460938 113.992188 37.777344 113.753906 37.777344 C 110.886719 37.621094 102.273438 37.539062 102.589844 42.003906 C 102.671875 42.5625 101.636719 42.5625 101.558594 41.921875 Z M 162.628906 4.847656 C 162.390625 4.691406 162.710938 4.289062 162.949219 4.449219 C 165.023438 5.566406 167.253906 7.082031 167.8125 9.472656 C 167.972656 10.191406 166.855469 10.511719 166.699219 9.792969 C 166.140625 7.5625 164.382812 6.207031 162.628906 4.847656 Z M 125.714844 164.632812 C 126.351562 164.550781 126.351562 165.585938 125.714844 165.667969 C 123.085938 165.910156 121.167969 164.949219 119.019531 163.515625 C 117.820312 162.71875 116.707031 161.523438 115.347656 160.960938 C 113.355469 160.164062 112.320312 160.644531 110.40625 160.5625 C 107.375 160.328125 104.746094 158.492188 101.875 157.695312 C 97.730469 156.578125 93.902344 157.058594 89.914062 158.332031 C 89.515625 158.410156 89.277344 157.855469 89.675781 157.695312 C 95.179688 155.144531 100.679688 156.101562 106.101562 158.253906 C 108.652344 159.289062 110.566406 159.210938 113.277344 159.367188 C 113.753906 159.367188 114.234375 159.53125 114.714844 159.609375 C 118.9375 160.804688 120.851562 165.109375 125.714844 164.632812 Z M 59.378906 127.796875 C 58.738281 126.601562 58.5 126.121094 58.980469 124.765625 C 59.136719 124.207031 59.9375 124.449219 59.859375 125.003906 C 59.460938 126.917969 62.011719 128.832031 62.808594 130.429688 C 63.605469 131.941406 63.605469 133.777344 64.5625 135.289062 C 65.914062 137.441406 68.230469 138.878906 70.0625 140.710938 C 71.496094 140.953125 72.851562 141.75 74.289062 142.148438 C 75.722656 142.546875 77.238281 142.863281 78.753906 143.023438 C 78.992188 143.023438 78.914062 143.421875 78.671875 143.421875 C 76.363281 143.183594 73.410156 142.945312 71.179688 141.90625 C 71.257812 141.988281 71.257812 142.066406 71.335938 142.066406 C 73.8125 145.496094 75.5625 149.402344 79.46875 151.394531 C 83.378906 153.386719 88.003906 153.308594 92.226562 153.230469 C 92.464844 153.230469 92.625 153.308594 92.789062 153.46875 C 95.257812 152.035156 98.445312 151.558594 100.839844 150.039062 C 104.347656 147.808594 109.210938 146.933594 112.640625 149.722656 C 112.957031 150.039062 112.640625 150.519531 112.242188 150.4375 C 110.246094 149.960938 108.492188 149.164062 106.339844 149.324219 C 103.550781 149.5625 102.035156 151.078125 99.640625 152.191406 C 97.332031 153.230469 94.859375 153.230469 92.863281 154.347656 C 92.789062 154.585938 92.546875 154.746094 92.226562 154.746094 C 91.511719 155.304688 90.871094 155.941406 90.3125 156.976562 C 90.15625 157.214844 89.757812 157.058594 89.835938 156.816406 C 90.15625 156.019531 90.632812 155.304688 91.191406 154.746094 C 87.207031 154.746094 83.058594 154.664062 79.390625 152.910156 C 75.5625 151.15625 73.488281 147.808594 71.257812 144.382812 C 69.742188 141.988281 68.148438 140.234375 66.074219 138.402344 C 64.71875 137.207031 63.761719 136.167969 63.125 134.414062 C 62.566406 132.898438 62.410156 131.78125 61.53125 130.265625 C 61.054688 129.867188 59.695312 128.433594 59.378906 127.796875 Z M 59.136719 121.496094 C 59.777344 118.386719 61.054688 115.199219 64.082031 113.683594 C 65.675781 112.886719 67.433594 112.804688 69.1875 112.40625 C 71.417969 111.851562 73.488281 110.894531 75.722656 110.332031 C 79.550781 109.300781 83.457031 109.699219 87.125 111.292969 C 91.511719 113.125 94.699219 117.109375 99.402344 118.148438 C 99.722656 118.230469 99.566406 118.628906 99.242188 118.628906 C 92.226562 117.351562 87.761719 110.894531 80.03125 111.128906 C 76.28125 111.210938 73.171875 113.203125 69.585938 114.003906 C 69.261719 114.082031 68.863281 114.160156 68.546875 114.160156 C 71.179688 114.800781 73.648438 115.996094 76.039062 117.109375 C 78.433594 118.148438 83.058594 119.503906 84.574219 121.65625 C 84.652344 121.734375 84.574219 121.894531 84.492188 121.894531 C 84.414062 121.894531 84.414062 121.976562 84.335938 121.976562 C 84.253906 121.976562 84.175781 121.976562 84.09375 121.976562 L 84.015625 121.894531 C 83.855469 121.734375 84.09375 121.496094 84.253906 121.65625 C 83.296875 120.699219 80.585938 119.902344 79.3125 119.265625 C 77.714844 118.546875 76.121094 117.828125 74.527344 117.191406 C 71.738281 116.15625 68.945312 115.117188 65.996094 114.640625 C 65.359375 114.800781 64.640625 115.039062 64.082031 115.355469 C 62.964844 116.078125 62.328125 117.03125 61.769531 118.070312 C 65.039062 118.785156 68.308594 119.742188 71.496094 120.621094 C 71.816406 120.699219 71.65625 121.179688 71.335938 121.097656 C 68.066406 120.378906 64.640625 119.742188 61.371094 118.867188 C 60.972656 119.902344 60.65625 120.9375 60.335938 121.894531 C 60.175781 122.773438 58.980469 122.375 59.136719 121.496094 Z M 102.035156 116.234375 C 102.117188 116.234375 102.117188 116.234375 102.191406 116.234375 C 102.191406 116.234375 102.117188 116.234375 102.035156 116.234375 C 102.117188 116.3125 102.117188 116.3125 102.035156 116.234375 Z M 101.714844 115.753906 Z M 104.109375 119.34375 C 109.132812 119.664062 111.363281 124.285156 112.957031 128.511719 C 113.117188 128.832031 113.59375 128.671875 113.4375 128.355469 C 113.195312 127.636719 112.878906 126.839844 112.558594 125.960938 C 114.234375 128.753906 116.066406 131.304688 118.140625 134.09375 C 120.292969 137.042969 121.890625 140.15625 123.320312 143.34375 C 120.53125 138.957031 117.980469 134.332031 114.152344 130.664062 C 114.152344 130.265625 113.917969 129.867188 113.515625 129.628906 C 113.277344 129.46875 112.878906 129.46875 112.558594 129.628906 C 112.320312 129.628906 112.160156 129.707031 112 129.867188 C 111.601562 130.347656 111.441406 130.984375 111.84375 131.542969 C 112.160156 132.023438 112.71875 132.101562 113.195312 131.859375 C 113.355469 131.78125 113.515625 131.703125 113.675781 131.542969 C 118.140625 136.644531 120.53125 144.382812 125.078125 149.5625 C 119.175781 147.410156 113.4375 142.785156 110.246094 138.082031 C 106.660156 133.058594 105.542969 125.804688 104.109375 119.34375 Z M 126.910156 136.167969 C 122.605469 130.1875 119.417969 123.808594 116.707031 116.953125 C 116.867188 116.792969 117.023438 116.554688 117.023438 116.234375 C 117.023438 116.078125 117.023438 115.914062 116.945312 115.753906 C 116.945312 115.597656 116.867188 115.4375 116.785156 115.355469 C 116.625 114.957031 116.066406 114.800781 115.667969 114.878906 C 115.746094 114.800781 115.746094 114.71875 115.828125 114.640625 C 116.386719 109.617188 115.113281 104.515625 116.386719 99.730469 C 116.542969 100.050781 116.785156 100.289062 117.105469 100.367188 C 117.265625 100.527344 117.503906 100.605469 117.742188 100.6875 C 120.453125 108.902344 123.242188 116.953125 125.875 125.164062 C 126.832031 128.195312 127.867188 131.226562 128.667969 134.332031 C 128.746094 135.371094 128.824219 136.328125 128.902344 137.363281 C 128.902344 137.683594 129.222656 137.761719 129.464844 137.683594 C 129.699219 139.035156 129.863281 140.3125 130.019531 141.667969 C 129.144531 139.757812 128.1875 138.003906 126.910156 136.167969 Z M 136.875 148.84375 C 137.355469 148.367188 137.835938 147.886719 138.3125 147.410156 C 138.394531 147.570312 138.632812 147.648438 138.792969 147.648438 C 138.710938 147.96875 139.109375 148.285156 139.507812 148.046875 C 139.746094 147.886719 139.90625 147.648438 140.144531 147.488281 L 140.144531 147.570312 C 140.066406 147.886719 140.226562 148.207031 140.386719 148.367188 C 139.667969 149.242188 138.871094 150.121094 137.996094 150.835938 C 137.914062 150.835938 137.835938 150.917969 137.753906 150.996094 C 137.59375 151.078125 137.515625 151.15625 137.355469 151.316406 C 136.078125 152.191406 134.484375 152.589844 132.890625 152.832031 C 133.210938 152.355469 133.609375 151.792969 133.925781 151.316406 C 134.964844 150.519531 136 149.722656 136.875 148.84375 Z M 141.023438 147.25 C 141.023438 147.171875 141.023438 147.171875 141.023438 147.171875 Z M 122.921875 151.632812 C 120.613281 151.476562 118.300781 150.996094 116.144531 150.28125 C 116.144531 149.960938 115.988281 149.722656 115.828125 149.484375 C 115.828125 149.402344 115.746094 149.402344 115.667969 149.402344 C 117.582031 149.960938 119.65625 150.28125 121.890625 150.359375 C 122.046875 150.359375 122.125 150.28125 122.207031 150.199219 C 123.320312 150.757812 124.28125 151.316406 125.238281 151.792969 C 124.519531 151.714844 123.71875 151.714844 122.921875 151.632812 Z M 114.472656 150.359375 C 114.550781 150.359375 114.394531 150.359375 114.472656 150.359375 Z M 115.269531 145.894531 C 116.785156 147.089844 118.378906 148.128906 120.132812 149.003906 C 119.257812 148.84375 118.378906 148.683594 117.503906 148.527344 C 116.707031 147.648438 115.988281 146.773438 115.269531 145.894531 Z M 154.417969 111.054688 C 154.738281 110.972656 155.054688 110.652344 154.898438 110.175781 C 152.824219 105.789062 153.699219 100.605469 153.78125 95.902344 C 153.859375 91.835938 153.859375 87.773438 153.941406 83.703125 C 154.179688 83.785156 154.417969 83.863281 154.65625 83.703125 C 154.738281 83.625 154.816406 83.625 154.898438 83.546875 C 154.976562 93.273438 155.613281 103.078125 155.296875 112.804688 C 155.136719 112.886719 154.976562 112.886719 154.898438 112.964844 C 154.738281 112.328125 154.65625 111.691406 154.417969 111.054688 Z M 151.308594 74.851562 C 151.546875 74.933594 151.867188 74.933594 152.105469 75.011719 C 151.945312 76.605469 152.265625 78.441406 152.585938 79.957031 C 152.664062 80.273438 153.222656 80.199219 153.222656 79.875 C 153.0625 78.839844 152.984375 77.882812 152.902344 76.847656 C 152.902344 76.289062 152.902344 75.648438 152.902344 75.09375 C 153.621094 75.171875 154.339844 75.25 155.054688 75.25 C 155.214844 75.25 155.296875 75.25 155.375 75.171875 C 155.054688 76.371094 154.898438 77.644531 154.578125 78.839844 C 154.496094 79.160156 154.976562 79.320312 155.054688 79 C 155.535156 77.644531 156.09375 76.207031 156.332031 74.773438 C 157.207031 74.695312 158.003906 74.535156 158.722656 74.214844 C 158.246094 75.808594 157.605469 77.402344 156.730469 78.761719 C 155.933594 80.117188 154.65625 81.152344 153.78125 82.425781 C 151.46875 80.832031 151.148438 77.644531 151.308594 74.851562 Z M 141.820312 66.722656 C 141.582031 66.324219 141.421875 65.921875 141.261719 65.605469 C 141.261719 65.523438 141.261719 65.367188 141.183594 65.285156 C 141.183594 65.207031 141.101562 65.207031 141.101562 65.125 C 139.828125 62.019531 139.507812 58.507812 137.117188 55.875 C 135.761719 54.363281 133.847656 53.644531 132.332031 52.371094 C 129.863281 50.296875 128.667969 47.585938 127.628906 44.636719 C 126.273438 40.570312 122.445312 32.195312 124.917969 27.652344 C 125.15625 27.570312 125.394531 27.335938 125.316406 27.09375 C 125.953125 26.21875 126.910156 25.578125 128.1875 25.101562 C 128.667969 24.941406 128.425781 24.304688 128.027344 24.382812 C 126.75 24.703125 125.792969 25.261719 125.078125 25.898438 C 124.042969 21.035156 126.992188 15.773438 129.066406 11.625 C 130.820312 8.039062 133.609375 5.089844 135.203125 1.5 C 136.558594 2.777344 137.996094 3.09375 139.828125 3.652344 C 143.097656 4.613281 146.285156 5.886719 149.316406 7.5625 C 155.695312 11.066406 158.882812 15.292969 161.273438 21.992188 C 158.085938 29.726562 156.492188 38.335938 154.65625 46.308594 C 154.417969 45.832031 154.179688 45.433594 153.941406 44.953125 C 154.097656 44.875 154.257812 44.714844 154.179688 44.394531 C 152.746094 38.734375 152.585938 33.316406 152.105469 27.570312 C 151.789062 23.1875 149.871094 19.996094 147.402344 16.492188 C 147.242188 16.25 146.84375 16.492188 147.003906 16.730469 C 150.273438 21.753906 151.148438 26.058594 151.390625 31.957031 C 151.546875 35.46875 151.707031 38.972656 152.585938 42.320312 C 152.1875 41.523438 151.789062 40.648438 151.390625 39.769531 C 149.714844 35.707031 147.640625 32.519531 144.050781 29.886719 C 143.816406 29.726562 143.496094 29.488281 143.253906 29.328125 C 141.898438 26.058594 140.304688 22.867188 139.269531 19.441406 C 139.191406 19.042969 138.550781 19.199219 138.632812 19.597656 C 139.347656 22.3125 140.144531 25.417969 141.421875 28.132812 C 138.234375 26.058594 134.324219 24.144531 130.976562 24.222656 C 130.496094 24.222656 130.496094 24.941406 130.976562 25.019531 C 135.28125 25.578125 140.226562 29.007812 143.574219 31.71875 C 147.402344 34.828125 148.996094 38.574219 150.910156 42.960938 C 152.902344 47.425781 154.898438 51.253906 155.933594 56.117188 C 156.492188 58.589844 156.890625 61.058594 157.128906 63.613281 C 157.128906 64.089844 157.128906 64.570312 157.207031 65.046875 L 157.207031 65.125 C 157.289062 67.757812 157.128906 70.390625 156.492188 72.941406 C 156.410156 73.097656 156.492188 73.257812 156.492188 73.339844 C 156.25 73.417969 155.933594 73.578125 155.695312 73.65625 C 155.613281 73.65625 155.535156 73.738281 155.453125 73.816406 C 155.375 73.816406 155.375 73.816406 155.296875 73.738281 C 154.578125 73.738281 153.859375 73.65625 153.144531 73.578125 C 152.902344 72.300781 152.503906 71.347656 151.945312 70.070312 C 150.59375 66.960938 150.59375 64.410156 150.195312 61.140625 C 149.632812 56.753906 147.960938 52.6875 146.207031 48.699219 C 146.125 48.464844 145.648438 48.621094 145.726562 48.863281 C 147.800781 53.804688 149.632812 58.589844 149.632812 64.011719 C 149.632812 67.757812 151.308594 69.992188 152.347656 73.5 C 151.546875 73.339844 150.75 73.179688 149.953125 72.941406 C 148.757812 70.707031 147.5625 68.472656 146.445312 66.164062 C 145.089844 63.292969 145.246094 60.34375 144.214844 57.472656 C 142.777344 53.484375 139.746094 50.457031 136.71875 47.667969 C 136.476562 47.425781 136.078125 47.824219 136.320312 48.066406 C 138.3125 49.898438 140.304688 51.890625 141.742188 54.203125 C 143.734375 57.3125 143.652344 59.785156 144.449219 63.214844 C 145.171875 66.480469 147.082031 69.59375 148.675781 72.621094 C 145.648438 71.265625 143.335938 69.429688 141.820312 66.722656 Z M 127.070312 56.4375 C 123.644531 52.371094 120.53125 48.222656 118.21875 43.519531 C 115.667969 38.496094 114.472656 33.949219 114.394531 28.292969 C 114.316406 23.269531 114.949219 18.324219 115.269531 13.300781 C 116.308594 18.566406 120.929688 22.710938 123.242188 27.492188 C 123.320312 27.734375 123.484375 27.8125 123.644531 27.8125 C 122.605469 30.203125 122.84375 33.316406 123.484375 36.023438 C 124.839844 41.605469 126.195312 49.179688 130.660156 53.246094 C 131.535156 54.046875 132.570312 54.601562 133.527344 55.242188 C 136.078125 56.996094 137.195312 58.667969 138.234375 61.621094 C 138.394531 62.019531 138.550781 62.496094 138.632812 62.894531 C 137.515625 61.9375 136.242188 61.222656 134.882812 60.34375 C 130.976562 57.949219 128.34375 55.242188 125.953125 51.332031 C 123.960938 48.066406 121.96875 44.714844 120.214844 41.289062 C 118.0625 36.980469 117.503906 32.519531 116.945312 27.734375 C 116.945312 27.492188 116.46875 27.414062 116.46875 27.734375 C 116.867188 36.34375 119.816406 42.484375 124.042969 49.898438 C 125.792969 53.007812 127.707031 56.039062 130.417969 58.429688 C 133.210938 60.898438 136.640625 62.335938 139.269531 65.046875 C 139.269531 65.125 139.347656 65.207031 139.347656 65.285156 C 134.882812 62.816406 130.496094 60.5 127.070312 56.4375 Z M 117.023438 49.496094 C 114.871094 48.542969 112.640625 47.746094 110.328125 47.027344 C 113.039062 47.027344 115.910156 46.390625 118.460938 47.269531 C 118.539062 47.269531 118.617188 47.269531 118.699219 47.269531 C 119.894531 49.179688 121.09375 50.933594 122.367188 52.6875 C 120.613281 51.570312 118.9375 50.296875 117.023438 49.496094 Z M 174.910156 50.21875 C 176.582031 49.179688 178.101562 47.667969 179.53125 46.308594 C 181.367188 44.554688 183.042969 42.644531 184.636719 40.726562 C 184.796875 40.492188 184.554688 40.25 184.316406 40.410156 C 182.722656 42.164062 181.050781 43.917969 179.214844 45.59375 C 179.214844 45.59375 179.214844 45.59375 179.132812 45.671875 C 182.5625 41.207031 185.035156 35.785156 186.074219 30.203125 C 186.074219 30.203125 186.074219 30.285156 186.152344 30.285156 C 190.21875 33.394531 190.855469 36.902344 189.898438 40.328125 C 187.984375 43.121094 185.910156 45.59375 183.199219 47.667969 C 180.726562 49.578125 177.859375 50.695312 175.226562 52.449219 C 172.996094 53.964844 171 56.039062 169.25 58.269531 C 169.964844 56.753906 170.84375 55.320312 171.800781 53.964844 C 172.675781 52.527344 173.792969 51.332031 174.910156 50.21875 Z M 181.6875 51.171875 C 176.980469 55.320312 172.355469 60.34375 166.773438 63.371094 C 168.609375 61.058594 170.363281 58.746094 172.277344 56.515625 C 174.429688 54.046875 176.902344 52.527344 179.695312 50.933594 C 183.042969 48.941406 185.992188 46.46875 188.464844 43.519531 C 186.707031 46.390625 184.078125 49.097656 181.6875 51.171875 Z M 101.078125 116.3125 C 101.238281 116.554688 101.558594 116.710938 101.792969 116.710938 C 102.035156 116.710938 102.273438 116.632812 102.515625 116.554688 C 103.230469 121.578125 104.585938 126.679688 105.941406 131.542969 C 106.898438 135.050781 108.015625 138.082031 110.246094 140.953125 C 104.1875 135.53125 97.089844 130.984375 90.554688 126.839844 C 90.394531 126.679688 90.15625 127 90.394531 127.15625 C 95.414062 130.507812 100.199219 134.332031 104.746094 138.238281 C 108.492188 141.429688 111.761719 145.097656 115.511719 148.285156 C 113.59375 147.886719 111.761719 147.332031 109.929688 146.453125 C 106.742188 144.859375 103.628906 143.183594 100.28125 141.828125 C 92.625 138.558594 84.652344 135.769531 76.839844 133.296875 C 76.519531 133.21875 76.363281 133.695312 76.679688 133.855469 C 85.371094 136.804688 93.902344 139.433594 102.191406 143.421875 C 106.742188 145.65625 110.726562 147.96875 115.269531 149.324219 C 115.113281 149.324219 114.949219 149.402344 114.792969 149.484375 L 114.714844 149.484375 C 114.074219 149.402344 113.515625 150.039062 113.515625 150.597656 C 113.4375 151.234375 113.917969 151.792969 114.472656 151.957031 C 115.113281 152.113281 115.667969 151.792969 115.910156 151.316406 C 117.980469 152.273438 120.214844 152.988281 122.445312 153.308594 C 121.011719 154.90625 119.816406 156.738281 119.019531 158.570312 C 118.9375 158.734375 119.097656 158.96875 119.257812 158.890625 C 119.574219 158.890625 119.894531 158.890625 120.132812 158.890625 C 120.371094 158.890625 120.371094 158.492188 120.132812 158.492188 C 119.972656 158.492188 119.816406 158.410156 119.65625 158.410156 C 120.292969 157.457031 120.769531 156.5 121.492188 155.621094 C 122.046875 154.824219 122.6875 154.109375 123.320312 153.386719 C 125.238281 153.628906 127.230469 153.628906 129.144531 153.308594 C 129.300781 153.386719 129.464844 153.46875 129.699219 153.550781 C 129.621094 153.949219 129.941406 154.425781 130.417969 154.347656 C 130.738281 154.265625 131.058594 154.183594 131.296875 154.183594 C 131.296875 155.621094 131.535156 157.136719 131.695312 158.492188 C 131.695312 158.652344 132.015625 158.652344 132.015625 158.492188 C 131.855469 156.976562 131.933594 155.542969 132.015625 154.027344 C 134.007812 153.628906 136.160156 153.230469 137.753906 152.035156 C 137.914062 151.957031 137.996094 151.792969 138.152344 151.714844 C 140.945312 151.394531 143.816406 150.679688 146.605469 151.632812 C 148.757812 152.355469 150.671875 153.550781 152.902344 153.949219 C 153.0625 153.949219 153.222656 153.707031 152.984375 153.628906 C 150.429688 153.070312 148.359375 151.476562 145.886719 150.757812 C 143.734375 150.121094 141.421875 150.359375 139.191406 150.679688 C 139.828125 150.039062 140.386719 149.242188 140.945312 148.527344 C 141.261719 148.445312 141.582031 148.285156 141.898438 148.046875 C 142.140625 147.96875 142.378906 147.808594 142.457031 147.488281 C 142.539062 147.171875 142.457031 146.851562 142.296875 146.609375 L 142.378906 146.53125 C 142.539062 146.292969 142.21875 146.132812 142.058594 146.292969 L 141.980469 146.375 C 141.898438 146.375 141.820312 146.292969 141.820312 146.292969 C 145.246094 143.023438 148.519531 140.15625 153.300781 139.117188 C 155.851562 138.558594 158.566406 138.480469 161.195312 138.480469 C 162.3125 138.480469 163.347656 138.558594 164.464844 138.636719 C 165.898438 139.199219 166.375 139.117188 165.898438 138.558594 C 166.457031 138.71875 167.015625 138.878906 167.574219 138.957031 C 168.050781 139.035156 168.210938 138.320312 167.8125 138.238281 C 162.789062 136.964844 157.289062 136.882812 152.265625 138.003906 C 149.953125 138.480469 147.960938 139.433594 146.125 140.710938 C 146.285156 140.472656 146.523438 140.234375 146.683594 139.914062 C 147.878906 138.238281 148.917969 136.40625 150.429688 134.972656 C 152.421875 133.058594 155.136719 132.101562 157.769531 131.144531 C 158.003906 131.0625 157.925781 130.664062 157.6875 130.746094 C 154.097656 131.859375 150.992188 133.21875 148.519531 136.167969 C 146.367188 138.800781 144.292969 141.351562 142.140625 143.902344 C 141.660156 144.382812 141.101562 144.78125 140.625 145.257812 C 140.386719 145.414062 140.386719 145.65625 140.386719 145.894531 C 139.988281 146.375 139.589844 146.851562 139.191406 147.25 C 139.269531 146.933594 139.429688 146.53125 139.507812 146.210938 C 143.097656 142.066406 145.96875 137.042969 148.4375 132.339844 C 150.59375 128.195312 152.503906 125.5625 157.527344 124.449219 C 161.914062 123.488281 166.296875 123.652344 170.683594 124.683594 C 170.921875 124.765625 171 124.367188 170.761719 124.285156 C 165.898438 123.011719 158.644531 122.132812 153.621094 124.605469 C 154.257812 123.808594 154.898438 123.011719 155.535156 122.214844 C 155.695312 122.292969 155.851562 122.292969 156.09375 122.214844 C 156.730469 122.054688 156.890625 121.257812 156.730469 120.699219 C 156.648438 120.460938 156.410156 120.140625 156.09375 120.0625 C 155.453125 119.902344 154.898438 120.0625 154.417969 120.539062 C 153.941406 120.9375 154.257812 121.578125 154.65625 121.734375 L 154.738281 121.816406 C 150.59375 126.042969 147.320312 130.90625 144.132812 135.847656 C 143.253906 137.207031 142.378906 138.71875 141.5 140.234375 C 143.574219 134.09375 145.808594 128.113281 148.917969 122.214844 C 149.074219 121.894531 148.675781 121.65625 148.519531 121.976562 C 144.449219 128.671875 140.625 136.644531 138.871094 144.457031 C 138.070312 145.65625 137.117188 146.773438 136.160156 147.730469 C 139.109375 142.464844 141.421875 136.882812 142.777344 130.984375 C 143.574219 127.554688 144.050781 124.128906 144.214844 120.699219 C 147.480469 117.507812 151.625 115.199219 156.171875 114.082031 C 156.332031 114.082031 156.492188 114.082031 156.570312 114.003906 C 158.722656 113.523438 160.957031 113.285156 163.1875 113.363281 C 166.375 113.445312 168.847656 114.402344 172.039062 114.082031 C 174.988281 113.761719 177.699219 113.125 180.726562 113.445312 C 185.277344 113.921875 189.976562 115.4375 191.492188 120.222656 C 192.128906 122.132812 192.929688 124.449219 193.25 126.359375 C 193.566406 128.195312 193.328125 129.550781 192.769531 130.746094 C 191.652344 130.585938 190.457031 130.746094 189.339844 130.664062 C 187.984375 130.585938 186.550781 130.507812 185.195312 130.429688 C 184.875 130.429688 184.875 130.90625 185.195312 130.90625 C 186.707031 131.0625 188.144531 131.226562 189.660156 131.382812 C 190.617188 131.460938 191.574219 131.625 192.453125 131.382812 C 190.933594 133.777344 187.902344 134.972656 185.195312 136.328125 C 182.164062 137.839844 176.105469 141.507812 172.753906 138.957031 C 172.121094 138.480469 171.160156 139.277344 171.800781 139.914062 C 173.074219 141.269531 174.589844 141.507812 176.105469 141.351562 C 175.945312 141.589844 175.867188 141.90625 176.105469 142.148438 C 177.859375 144.140625 176.105469 147.089844 174.191406 149.484375 C 172.277344 148.367188 170.203125 147.570312 167.972656 147.410156 C 165.101562 147.25 162.3125 146.691406 159.441406 146.453125 C 159.121094 146.453125 159.121094 146.851562 159.441406 146.933594 C 161.832031 147.25 164.148438 148.046875 166.539062 148.207031 C 169.167969 148.367188 171.242188 149.164062 173.632812 150.121094 C 172.917969 151.078125 172.199219 151.875 171.800781 152.511719 C 169.488281 155.859375 167.175781 158.890625 163.347656 160.644531 C 156.570312 163.835938 148.757812 162.796875 141.5 161.921875 C 141.183594 161.921875 141.183594 162.398438 141.421875 162.398438 C 150.351562 164.074219 160.636719 165.507812 168.132812 159.132812 C 171.480469 156.257812 174.351562 151.792969 176.742188 148.128906 C 178.257812 145.8125 178.816406 143.421875 176.902344 141.191406 L 176.824219 141.109375 C 177.9375 140.871094 179.054688 140.394531 180.171875 139.996094 C 184.238281 138.320312 188.542969 136.484375 192.128906 133.933594 C 194.761719 132.101562 196.039062 130.105469 195.003906 126.917969 C 194.363281 124.847656 193.566406 123.089844 193.085938 120.9375 C 192.6875 119.265625 192.210938 117.589844 191.175781 116.15625 C 185.433594 108.902344 173.550781 113.363281 166.058594 112.167969 C 162.949219 111.691406 159.839844 111.769531 156.890625 112.488281 C 156.171875 102.601562 156.410156 92.714844 156.011719 82.824219 C 158.246094 80.675781 159.441406 76.847656 159.679688 73.976562 L 159.679688 73.898438 C 162.710938 72.222656 164.546875 68.398438 166.058594 65.207031 C 166.21875 65.285156 166.457031 65.285156 166.699219 65.207031 C 170.921875 63.132812 174.191406 59.945312 177.621094 56.753906 C 181.289062 53.40625 185.351562 50.136719 188.464844 46.230469 C 192.609375 40.890625 193.40625 33.074219 186.871094 29.328125 C 186.707031 29.246094 186.628906 29.246094 186.550781 29.328125 C 187.828125 21.59375 186.390625 13.539062 181.050781 7.402344 C 180.808594 7.082031 180.328125 7.480469 180.570312 7.800781 C 182.484375 10.910156 184.554688 13.78125 185.433594 17.367188 C 186.390625 21.191406 185.992188 25.179688 185.113281 29.007812 C 183.679688 35.625 181.050781 42.085938 176.425781 47.027344 C 172.753906 50.933594 169.886719 54.203125 167.414062 59.066406 C 165.023438 63.929688 163.109375 69.671875 158.402344 72.460938 C 158.566406 71.585938 158.722656 70.707031 158.800781 69.828125 C 158.964844 70.148438 159.441406 70.308594 159.597656 69.910156 C 161.753906 65.765625 164.148438 61.621094 165.820312 57.234375 C 167.652344 52.449219 167.734375 47.1875 170.046875 42.5625 C 170.203125 42.320312 169.804688 42.085938 169.648438 42.320312 C 167.574219 46.148438 167.097656 50.296875 165.898438 54.363281 C 164.304688 59.625 161.273438 64.488281 158.882812 69.351562 C 159.121094 66.5625 159.042969 63.847656 158.644531 61.058594 C 160 54.046875 162.550781 47.824219 165.34375 40.96875 C 168.050781 34.269531 168.609375 24.464844 174.429688 19.679688 C 174.671875 19.519531 174.351562 19.121094 174.113281 19.28125 C 168.210938 23.667969 167.734375 32.195312 165.261719 38.65625 C 162.949219 44.554688 159.441406 50.773438 158.003906 57.234375 C 158.003906 57.152344 158.003906 57.152344 158.003906 57.074219 C 157.371094 54.121094 156.808594 50.933594 155.613281 48.222656 C 155.535156 48.066406 155.453125 47.984375 155.453125 47.824219 C 155.695312 47.746094 155.933594 47.667969 156.011719 47.269531 C 158.003906 39.292969 159.121094 30.601562 162.152344 22.867188 C 162.550781 22.867188 163.027344 22.550781 162.871094 22.070312 C 162.789062 21.914062 162.789062 21.753906 162.710938 21.59375 C 163.027344 20.792969 163.347656 20.078125 163.746094 19.28125 C 165.578125 15.613281 168.132812 12.34375 170.523438 9.074219 C 171.160156 8.199219 171.800781 7.242188 172.519531 6.363281 C 173.792969 4.769531 176.105469 3.414062 178.335938 4.214844 C 179.375 4.613281 179.613281 5.644531 180.808594 5.964844 C 181.207031 6.042969 181.367188 5.488281 180.96875 5.328125 C 178.175781 4.214844 177.539062 1.261719 174.113281 3.09375 C 172.519531 3.972656 171.398438 5.964844 170.363281 7.320312 C 168.691406 9.554688 166.9375 11.789062 165.421875 14.179688 C 164.703125 15.292969 164.066406 16.410156 163.425781 17.605469 C 163.585938 15.453125 163.585938 13.140625 163.425781 11.148438 C 163.425781 10.910156 163.027344 10.828125 163.027344 11.066406 C 162.628906 13.617188 162.390625 16.730469 162.628906 19.28125 C 162.550781 19.519531 162.390625 19.761719 162.3125 19.996094 C 160.957031 16.492188 159.363281 13.382812 156.648438 10.828125 C 156.730469 10.75 156.730469 10.589844 156.730469 10.429688 C 156.492188 9.316406 158.484375 7.640625 159.199219 7.082031 C 160.320312 6.125 161.515625 5.410156 162.789062 4.691406 C 162.949219 4.613281 162.789062 4.449219 162.628906 4.449219 C 161.035156 5.167969 159.441406 5.886719 158.003906 7.003906 C 157.128906 7.71875 155.933594 8.757812 155.613281 9.953125 C 155.214844 9.632812 154.898438 9.316406 154.496094 9.074219 C 151.867188 7.242188 149.074219 5.644531 146.125 4.449219 C 142.695312 3.015625 138.871094 2.457031 135.761719 0.464844 C 135.519531 0.304688 135.28125 0.464844 135.203125 0.703125 C 135.121094 0.703125 135.042969 0.785156 134.964844 0.863281 C 131.457031 8.277344 122.523438 16.410156 124.199219 25.417969 C 121.648438 20.792969 117.664062 17.367188 116.707031 11.867188 C 116.625 11.226562 115.589844 11.390625 115.589844 12.023438 C 115.589844 12.105469 115.589844 12.265625 115.667969 12.34375 C 115.511719 12.265625 115.347656 12.34375 115.269531 12.503906 C 112.480469 22.230469 112.082031 34.347656 117.105469 43.359375 C 117.183594 43.441406 117.183594 43.519531 117.265625 43.597656 C 116.625 43.441406 115.828125 43.359375 115.113281 43.359375 C 113.59375 43.199219 108.015625 43.441406 107.855469 41.6875 C 107.855469 41.523438 107.617188 41.523438 107.617188 41.6875 C 107.617188 42.085938 107.617188 42.484375 107.617188 42.960938 C 107.617188 43.042969 107.695312 43.121094 107.773438 43.121094 C 110.964844 43.757812 115.269531 43.28125 118.0625 44.953125 C 118.21875 45.273438 118.460938 45.59375 118.617188 45.910156 C 117.183594 45.351562 115.667969 45.832031 114.074219 45.910156 C 109.929688 46.070312 106.898438 45.433594 103.390625 43.199219 C 103.070312 42.960938 102.671875 43.519531 102.992188 43.757812 C 104.667969 45.113281 106.5 46.390625 108.652344 46.789062 L 108.734375 46.789062 C 108.734375 46.871094 108.8125 46.945312 108.890625 47.027344 C 111.84375 48.382812 115.113281 49.339844 118.0625 50.855469 C 120.292969 51.972656 122.046875 53.882812 124.441406 54.601562 C 124.519531 54.601562 124.597656 54.601562 124.679688 54.601562 C 128.824219 59.546875 133.769531 63.613281 140.066406 66.480469 C 140.304688 66.5625 140.546875 66.5625 140.703125 66.402344 C 141.183594 67.4375 141.660156 68.472656 142.457031 69.429688 C 144.691406 72.222656 147.800781 73.816406 151.148438 74.613281 C 150.910156 77.324219 150.910156 82.75 153.859375 83.546875 C 153.78125 88.804688 153.460938 94.070312 153.300781 99.332031 C 153.222656 101.726562 153.144531 104.117188 153.382812 106.347656 C 152.664062 104.914062 151.867188 103.636719 150.992188 102.359375 C 149.871094 100.765625 148.519531 99.492188 147.242188 98.054688 C 145.171875 95.582031 144.371094 92.792969 143.496094 89.683594 C 142.695312 87.050781 141.660156 84.34375 139.269531 82.75 C 136.242188 80.753906 133.210938 83.066406 130.019531 81.792969 C 129.699219 81.710938 129.621094 82.109375 129.863281 82.269531 C 130.496094 82.667969 131.136719 82.90625 131.773438 82.988281 C 132.652344 87.691406 133.527344 92.316406 133.6875 97.101562 C 133.6875 97.339844 134.007812 97.339844 134.007812 97.101562 C 134.085938 92.476562 133.769531 87.53125 132.414062 82.988281 C 134.722656 82.988281 137.039062 81.871094 139.507812 84.101562 C 142.539062 86.8125 142.457031 91.4375 144.050781 94.949219 C 145.089844 97.257812 146.683594 98.851562 148.359375 100.765625 C 151.625 104.515625 152.664062 108.660156 154.339844 113.203125 C 150.75 114.480469 147.402344 116.554688 144.769531 119.34375 C 144.929688 114.800781 144.769531 110.253906 144.613281 105.628906 C 144.929688 104.914062 144.613281 103.953125 143.734375 103.878906 C 143.496094 103.878906 143.335938 103.878906 143.253906 103.878906 C 143.097656 103.878906 143.019531 103.953125 142.855469 103.953125 C 142.695312 104.035156 142.621094 104.035156 142.457031 104.195312 C 142.296875 104.351562 142.140625 104.515625 141.980469 104.675781 C 141.582031 105.3125 142.140625 105.949219 142.777344 106.027344 C 142.855469 106.109375 142.855469 106.109375 142.9375 106.1875 C 143.097656 106.269531 143.335938 106.347656 143.496094 106.347656 C 143.417969 114.558594 143.652344 122.214844 141.660156 130.347656 C 139.90625 137.523438 136.875 144.140625 132.96875 150.359375 C 132.890625 150.359375 132.890625 150.4375 132.8125 150.4375 C 132.8125 150.121094 132.8125 149.882812 132.8125 149.5625 C 133.769531 145.976562 135.203125 142.546875 136.320312 139.035156 C 140.546875 130.03125 140.945312 118.867188 138.949219 109.378906 C 138.871094 109.136719 138.472656 109.21875 138.550781 109.457031 C 139.667969 116.554688 139.269531 123.011719 137.914062 129.550781 C 138.070312 126.839844 137.914062 124.128906 137.355469 121.496094 C 137.4375 121.417969 137.59375 121.417969 137.671875 121.335938 C 138.710938 120.460938 137.4375 118.945312 136.398438 119.027344 C 135.679688 119.027344 135.121094 119.664062 135.28125 120.378906 C 135.363281 120.859375 135.679688 121.019531 136 121.179688 C 136.078125 121.257812 136.160156 121.335938 136.242188 121.417969 C 136.320312 121.496094 136.476562 121.496094 136.558594 121.496094 L 136.640625 121.496094 C 136.796875 126.601562 137.039062 131.542969 136.078125 136.566406 C 135.601562 138.003906 135.121094 139.515625 134.644531 141.03125 C 134.566406 141.191406 134.644531 141.269531 134.804688 141.351562 C 134.167969 143.183594 133.449219 144.9375 132.8125 146.691406 C 132.652344 139.199219 132.332031 131.78125 132.171875 124.285156 C 132.09375 119.664062 132.652344 115.835938 134.882812 111.769531 C 136.242188 109.300781 137.753906 107.066406 138.550781 104.351562 C 138.949219 104.277344 139.191406 103.953125 139.269531 103.476562 C 139.269531 103.320312 139.269531 103.320312 139.347656 103.15625 C 139.589844 102.28125 138.394531 101.5625 137.835938 102.28125 C 137.515625 102.679688 137.4375 103.078125 137.4375 103.554688 C 137.4375 103.878906 137.59375 104.117188 137.753906 104.277344 C 136.398438 107.542969 134.324219 110.332031 132.730469 113.523438 C 131.296875 116.476562 130.820312 119.582031 130.820312 122.855469 C 130.820312 126.917969 130.894531 130.984375 130.976562 135.132812 C 130.820312 134.332031 130.578125 133.535156 130.417969 132.738281 C 130.660156 119.902344 129.78125 106.90625 129.144531 94.152344 C 129.144531 93.828125 128.667969 93.828125 128.667969 94.152344 C 128.667969 105.230469 128.503906 116.476562 128.984375 127.636719 C 128.824219 127.15625 128.667969 126.601562 128.503906 126.121094 C 125.714844 117.351562 122.445312 108.820312 119.175781 100.207031 C 119.417969 100.050781 119.574219 99.730469 119.574219 99.410156 C 119.574219 99.09375 119.574219 98.695312 119.496094 98.375 C 119.417969 97.898438 118.9375 97.65625 118.460938 97.578125 C 118.21875 97.578125 117.980469 97.578125 117.664062 97.65625 C 117.902344 97.175781 118.0625 96.703125 118.378906 96.222656 C 119.335938 94.46875 120.292969 92.953125 120.929688 91.039062 C 122.207031 87.050781 122.6875 82.109375 128.027344 81.550781 C 128.425781 81.472656 128.503906 80.832031 128.027344 80.832031 C 121.25 80.832031 120.929688 89.765625 118.378906 94.152344 C 114.792969 100.289062 114.316406 107.542969 115.589844 114.640625 C 115.667969 114.878906 115.828125 114.957031 115.988281 114.957031 C 115.828125 115.039062 115.746094 115.199219 115.667969 115.277344 C 115.589844 115.355469 115.511719 115.4375 115.429688 115.515625 C 115.347656 115.679688 115.269531 115.835938 115.269531 116.078125 C 115.269531 116.15625 115.269531 116.15625 115.269531 116.234375 C 115.269531 116.875 115.910156 117.507812 116.542969 117.351562 C 118.21875 123.089844 120.929688 128.671875 124.199219 133.695312 C 125.792969 136.167969 127.945312 138.480469 129.222656 141.109375 C 130.417969 143.503906 130.660156 146.210938 130.894531 148.84375 C 127.390625 142.707031 126.511719 134.972656 120.613281 130.507812 C 120.691406 129.867188 120.292969 129.070312 119.574219 128.992188 C 118.460938 128.832031 117.664062 130.1875 118.300781 131.0625 C 118.539062 131.382812 118.859375 131.542969 119.335938 131.460938 C 119.417969 131.460938 119.496094 131.460938 119.574219 131.382812 C 119.65625 131.382812 119.734375 131.382812 119.816406 131.382812 C 119.972656 131.304688 120.132812 131.304688 120.214844 131.226562 C 121.726562 132.738281 123.320312 134.175781 124.359375 136.085938 C 125.554688 138.402344 126.195312 141.03125 126.992188 143.503906 C 127.789062 146.054688 128.746094 148.84375 130.417969 150.917969 C 130.179688 150.917969 130.019531 150.835938 129.78125 150.835938 C 129.382812 150.4375 128.984375 150.039062 128.585938 149.5625 C 126.832031 144.539062 124.199219 139.433594 121.167969 135.289062 C 117.265625 129.789062 112.71875 125.082031 110.488281 118.628906 C 110.566406 118.46875 110.644531 118.304688 110.726562 118.148438 C 110.964844 117.671875 110.804688 117.109375 110.328125 116.875 C 110.089844 116.632812 109.765625 116.476562 109.367188 116.554688 C 108.414062 116.710938 107.9375 117.90625 108.253906 118.707031 C 108.414062 119.265625 109.210938 119.742188 109.765625 119.34375 C 109.847656 119.265625 110.007812 119.183594 110.089844 119.105469 C 110.488281 120.222656 110.886719 121.257812 111.363281 122.292969 C 109.765625 119.980469 107.695312 118.148438 104.824219 118.546875 C 104.746094 118.546875 104.667969 118.546875 104.667969 118.628906 C 104.425781 117.75 104.265625 116.875 104.027344 116.078125 C 104.027344 115.914062 103.949219 115.835938 103.867188 115.835938 C 104.027344 115.515625 104.027344 115.117188 103.867188 114.71875 C 103.46875 113.921875 102.273438 113.761719 101.792969 114.558594 C 101.636719 114.800781 101.636719 115.039062 101.792969 115.277344 C 100.917969 115.597656 100.917969 115.996094 101.078125 116.3125 Z M 129.542969 231.84375 C 131.617188 235.113281 133.289062 239.261719 132.570312 243.167969 C 131.855469 246.992188 128.503906 249.144531 125.15625 250.578125 C 120.929688 252.335938 116.308594 252.816406 111.84375 253.371094 C 108.8125 253.769531 105.144531 254.808594 102.035156 254.011719 C 99.882812 257.4375 97.570312 260.789062 95.097656 263.976562 C 92.464844 267.402344 89.117188 270.433594 86.808594 274.101562 C 84.734375 277.289062 83.695312 281.039062 81.703125 284.226562 C 79.710938 287.5 77.078125 290.289062 74.925781 293.398438 C 64.71875 307.585938 60.734375 324.730469 51.722656 339.640625 C 51.246094 340.4375 49.96875 339.71875 50.449219 338.921875 C 59.136719 323.855469 63.523438 306.953125 73.730469 292.757812 C 76.039062 289.492188 78.832031 286.457031 80.90625 283.03125 C 82.820312 279.761719 83.9375 276.09375 86.167969 272.984375 C 88.164062 270.195312 90.714844 267.882812 92.945312 265.25 C 96.054688 261.664062 98.84375 257.835938 101.476562 253.929688 C 100.839844 253.691406 100.199219 253.371094 99.640625 252.972656 C 99.164062 252.652344 99.402344 251.695312 100.039062 252.019531 C 105.703125 254.246094 114.152344 252.253906 119.894531 251.140625 C 123.085938 250.5 128.105469 249.304688 130.179688 246.4375 C 130.738281 245.640625 131.136719 244.84375 131.375 244.042969 C 129.382812 244.679688 127.308594 243.246094 125.714844 242.207031 C 125.394531 242.050781 125.714844 241.652344 125.953125 241.730469 C 126.832031 242.128906 127.789062 242.449219 128.667969 242.769531 C 129.621094 243.003906 130.496094 243.003906 131.457031 243.085938 C 131.535156 243.085938 131.535156 243.085938 131.617188 243.085938 C 131.855469 241.890625 131.855469 240.695312 131.773438 239.496094 C 131.695312 239.578125 131.535156 239.578125 131.375 239.496094 C 125.476562 237.503906 119.417969 236.546875 113.117188 236.707031 C 112.71875 236.707031 112.71875 236.070312 113.117188 236.070312 C 119.496094 235.59375 125.554688 236.308594 131.617188 238.382812 C 131.21875 236.226562 130.261719 234.15625 129.300781 232.320312 C 128.902344 231.765625 129.382812 231.523438 129.542969 231.84375 Z M 46.9375 269.398438 C 47.816406 269.160156 48.613281 269 49.492188 269 C 49.332031 268.839844 49.332031 268.679688 49.410156 268.441406 C 52.042969 265.011719 54.277344 261.902344 56.1875 258.074219 C 56.269531 257.835938 56.746094 257.996094 56.585938 258.234375 C 55.3125 262.0625 53.082031 266.125 50.128906 268.917969 C 52.761719 268.917969 55.3125 269.398438 57.941406 269.316406 C 62.886719 269.160156 65.757812 266.6875 69.824219 264.453125 C 70.300781 264.214844 70.78125 264.695312 70.539062 265.171875 C 68.863281 268.121094 65.199219 269.714844 62.011719 270.511719 C 56.828125 271.789062 52.121094 269.160156 47.019531 270.035156 C 46.703125 270.195312 46.460938 269.476562 46.9375 269.398438 Z M 62.648438 229.53125 C 62.328125 229.371094 61.929688 229.292969 61.609375 229.132812 C 61.769531 229.132812 61.851562 229.132812 62.011719 229.132812 C 62.167969 229.214844 62.410156 229.371094 62.648438 229.53125 Z M 49.011719 198.597656 C 49.011719 198.597656 49.09375 198.597656 49.171875 198.515625 C 49.09375 198.597656 49.011719 198.597656 49.011719 198.597656 Z M 49.011719 198.597656 Z M 72.214844 219.964844 C 72.136719 221.320312 72.054688 222.753906 72.054688 224.113281 C 72.054688 224.191406 72.054688 224.347656 72.054688 224.511719 C 71.738281 222.992188 71.496094 221.398438 71.335938 219.804688 C 71.578125 219.964844 71.894531 220.042969 72.214844 219.964844 Z M 73.089844 214.464844 C 72.933594 214.941406 72.773438 215.496094 72.613281 215.976562 C 72.613281 215.417969 72.535156 214.78125 72.535156 214.222656 C 72.691406 214.464844 72.933594 214.542969 73.089844 214.464844 Z M 80.664062 199.871094 C 80.664062 199.949219 80.664062 200.03125 80.664062 200.113281 C 80.347656 200.191406 80.109375 200.429688 80.03125 200.746094 C 79.710938 201.144531 79.710938 201.789062 79.949219 202.1875 L 80.03125 202.265625 C 79.46875 207.523438 78.671875 212.789062 77.558594 218.050781 C 76.761719 221.957031 76.039062 225.945312 74.210938 229.53125 C 74.527344 227.777344 74.128906 225.863281 73.886719 224.113281 C 73.730469 222.4375 73.570312 220.761719 73.488281 219.085938 C 73.570312 219.007812 73.648438 218.847656 73.730469 218.6875 C 76.601562 209.679688 79.628906 200.191406 80.585938 190.703125 C 80.746094 193.734375 80.828125 196.839844 80.664062 199.871094 Z M 81.304688 252.574219 C 82.738281 257.199219 83.058594 261.984375 84.09375 266.6875 C 83.296875 267.882812 82.261719 268.917969 81.144531 269.957031 C 81.144531 269.875 81.144531 269.875 81.144531 269.796875 C 78.832031 263.976562 78.914062 257.996094 78.195312 251.9375 C 78.113281 251.375 78.035156 250.898438 77.957031 250.34375 C 77.957031 246.355469 76.679688 242.371094 74.289062 238.382812 C 74.367188 238.382812 74.367188 238.382812 74.445312 238.382812 C 74.925781 238.300781 75.164062 237.984375 75.164062 237.585938 L 75.242188 237.585938 C 75.242188 237.667969 75.242188 237.820312 75.324219 237.902344 C 77.796875 242.605469 79.710938 247.550781 81.304688 252.574219 Z M 73.8125 230.410156 C 73.730469 230.328125 73.730469 230.246094 73.648438 230.246094 C 73.730469 230.246094 73.886719 230.167969 73.96875 230.09375 C 73.886719 230.167969 73.886719 230.328125 73.8125 230.410156 Z M 74.367188 233.996094 C 74.289062 234.15625 74.128906 234.394531 74.046875 234.554688 C 73.011719 234.234375 71.976562 233.679688 71.097656 233.039062 C 71.578125 233.121094 71.976562 233.199219 72.453125 233.28125 C 72.613281 233.519531 72.851562 233.679688 73.171875 233.597656 C 73.730469 233.4375 74.210938 233.199219 74.6875 233.039062 C 74.609375 233.359375 74.527344 233.679688 74.367188 233.996094 Z M 69.585938 232.800781 C 69.664062 232.800781 69.664062 232.800781 69.742188 232.800781 C 69.742188 232.882812 69.742188 232.960938 69.742188 233.039062 L 69.742188 233.121094 C 69.664062 233.039062 69.664062 232.960938 69.585938 232.800781 Z M 37.53125 205.214844 C 37.53125 205.132812 37.453125 205.132812 37.53125 205.214844 Z M 62.808594 189.828125 C 62.808594 189.828125 62.726562 189.828125 62.808594 189.828125 C 62.726562 189.828125 62.726562 189.746094 62.726562 189.746094 C 62.726562 189.828125 62.726562 189.828125 62.808594 189.828125 Z M 39.363281 237.34375 C 36.734375 240.058594 33.464844 243.003906 31.953125 246.515625 C 30.277344 250.34375 31.074219 255.683594 30.992188 259.671875 C 30.992188 262.78125 30.914062 265.492188 33.464844 267.644531 C 36.175781 270.035156 40.082031 270.355469 43.511719 270.195312 C 44.386719 270.195312 44.386719 268.917969 43.511719 268.839844 C 41.996094 268.679688 40.324219 268.679688 38.730469 268.441406 C 38.808594 268.441406 38.808594 268.363281 38.808594 268.28125 C 40.003906 266.046875 41.121094 263.976562 42.953125 262.140625 C 43.191406 261.902344 42.875 261.585938 42.632812 261.824219 C 40.640625 263.417969 38.808594 265.492188 37.933594 267.882812 C 37.851562 268.042969 37.933594 268.199219 38.007812 268.28125 C 35.9375 267.882812 34.105469 267.003906 32.90625 265.09375 C 31.234375 262.382812 32.03125 257.835938 32.03125 254.808594 C 32.03125 250.742188 31.390625 246.914062 34.261719 243.566406 C 36.097656 241.410156 38.488281 239.496094 40.484375 237.34375 C 40.558594 237.1875 40.640625 237.105469 40.558594 236.945312 C 40.800781 236.867188 40.960938 236.867188 41.199219 236.789062 C 48.058594 234.632812 54.511719 232.640625 61.6875 231.6875 C 61.929688 231.6875 62.085938 231.445312 62.167969 231.207031 C 62.726562 231.445312 63.285156 231.605469 63.84375 231.84375 C 58.339844 233.835938 52.359375 236.226562 48.613281 240.613281 C 48.375 240.933594 48.773438 241.332031 49.011719 241.011719 C 53.316406 236.226562 60.015625 234.875 65.835938 232.402344 C 66.3125 232.5625 66.792969 232.640625 67.269531 232.71875 C 64.082031 236.148438 60.574219 238.699219 56.90625 241.652344 C 52.601562 245.078125 51.246094 248.90625 48.933594 253.769531 C 48.773438 254.089844 49.253906 254.328125 49.410156 254.011719 C 51.007812 251.21875 52.042969 248.109375 54.195312 245.640625 C 55.949219 243.566406 58.261719 241.96875 60.492188 240.375 C 63.207031 238.464844 66.394531 236.546875 68.230469 233.679688 L 68.230469 233.757812 C 65.597656 237.269531 63.523438 241.171875 61.371094 244.996094 C 61.210938 245.320312 61.6875 245.558594 61.851562 245.320312 C 64.082031 241.808594 66.554688 238.542969 68.785156 235.03125 C 69.585938 236.46875 71.019531 237.820312 72.613281 238.222656 C 72.613281 238.300781 72.613281 238.382812 72.691406 238.464844 C 73.332031 239.976562 74.128906 241.410156 74.765625 242.925781 C 75.5625 245.640625 76.28125 248.347656 76.761719 251.140625 C 76.601562 255.683594 74.210938 259.429688 71.578125 262.859375 C 71.257812 263.257812 71.894531 263.734375 72.292969 263.417969 C 74.84375 260.707031 76.4375 257.835938 77.238281 254.886719 C 77.238281 255.125 77.316406 255.363281 77.316406 255.605469 C 77.636719 260.546875 77.875 265.492188 79.550781 270.195312 C 79.628906 270.511719 79.949219 270.675781 80.1875 270.675781 C 79.070312 271.707031 78.035156 272.667969 77.160156 273.863281 C 74.765625 277.289062 72.851562 281.121094 70.9375 284.785156 C 67.191406 291.882812 64.5625 299.695312 60.574219 306.710938 C 55.949219 314.605469 51.007812 322.65625 47.417969 331.109375 C 47.101562 331.984375 48.136719 332.703125 48.695312 331.828125 C 49.492188 330.550781 50.289062 329.195312 51.085938 327.839844 C 51.085938 327.839844 51.085938 327.917969 51.164062 327.917969 C 51.644531 328.238281 52.203125 328.082031 52.761719 328 C 53.398438 327.917969 54.113281 327.839844 54.753906 327.839844 C 55.3125 327.757812 55.3125 326.960938 54.753906 326.960938 C 54.035156 327.042969 53.316406 327.042969 52.601562 327.121094 C 52.203125 327.121094 51.804688 327.121094 51.40625 327.28125 C 55.074219 320.824219 58.339844 314.046875 62.011719 307.585938 C 63.363281 305.195312 64.480469 302.804688 65.597656 300.332031 C 65.597656 300.332031 65.597656 300.332031 65.675781 300.332031 C 66.074219 300.410156 66.3125 300.253906 66.636719 300.175781 C 67.035156 300.011719 67.351562 299.933594 67.75 299.777344 C 68.230469 299.613281 67.988281 298.976562 67.589844 299.058594 C 67.191406 299.136719 66.871094 299.214844 66.472656 299.378906 C 66.3125 299.457031 66.15625 299.457031 65.996094 299.535156 C 68.066406 294.59375 69.984375 289.570312 72.535156 284.863281 C 72.691406 284.625 72.773438 284.386719 72.933594 284.066406 C 73.25 284.386719 73.886719 284.386719 74.367188 284.308594 C 75.085938 284.308594 75.882812 284.148438 76.601562 283.910156 C 77 283.75 76.917969 283.113281 76.519531 283.191406 C 75.804688 283.269531 75.085938 283.269531 74.445312 283.269531 C 74.128906 283.269531 73.730469 283.191406 73.410156 283.269531 C 75.007812 280.324219 76.519531 277.289062 78.511719 274.578125 C 80.429688 271.949219 83.378906 270.273438 85.210938 267.644531 C 85.289062 267.644531 85.449219 267.644531 85.53125 267.644531 C 86.089844 267.644531 86.644531 267.566406 87.125 267.566406 C 87.683594 267.566406 87.683594 266.769531 87.125 266.769531 C 86.886719 266.769531 86.644531 266.769531 86.410156 266.769531 C 86.410156 266.6875 86.488281 266.605469 86.488281 266.605469 C 86.488281 266.207031 86.488281 265.890625 86.488281 265.492188 C 88.082031 262.699219 89.757812 260.390625 91.988281 257.835938 C 93.742188 255.84375 95.179688 253.929688 95.65625 251.296875 C 95.65625 251.058594 95.414062 250.898438 95.257812 251.140625 C 93.664062 254.246094 91.511719 256.640625 89.199219 259.195312 C 88.082031 260.390625 87.207031 261.664062 86.488281 262.9375 C 86.089844 257.355469 84.253906 251.773438 81.703125 246.59375 C 83.617188 247.152344 85.6875 247.234375 87.523438 247.789062 C 90.632812 248.667969 93.503906 250.179688 96.613281 251.058594 C 97.089844 251.21875 97.25 250.5 96.773438 250.34375 C 93.902344 249.382812 91.191406 247.949219 88.402344 246.753906 C 85.929688 245.71875 83.136719 245.71875 80.664062 244.679688 C 79.3125 242.128906 77.875 239.738281 76.363281 237.421875 C 76.363281 237.34375 76.28125 237.34375 76.28125 237.34375 C 76.4375 237.1875 76.601562 236.945312 76.761719 236.707031 C 77 237.1875 77.636719 237.34375 78.273438 237.34375 C 80.347656 237.585938 82.339844 237.667969 84.414062 237.902344 C 84.890625 237.984375 84.890625 237.269531 84.414062 237.1875 C 83.21875 237.023438 82.023438 236.867188 80.828125 236.707031 C 80.1875 236.625 77.875 236.546875 77.476562 235.910156 C 77.398438 235.828125 77.316406 235.75 77.238281 235.75 C 77.238281 235.671875 77.316406 235.59375 77.316406 235.511719 C 77.558594 234.875 77.875 234.234375 78.035156 233.519531 C 80.1875 234.476562 82.660156 233.996094 85.050781 233.835938 C 87.441406 233.679688 89.835938 233.28125 92.226562 233.917969 C 94.859375 234.632812 97.410156 236.226562 99.882812 237.421875 C 100.121094 237.503906 100.28125 237.1875 100.039062 237.105469 C 97.25 235.59375 94.21875 233.4375 91.03125 232.882812 C 86.726562 232.085938 82.421875 233.679688 78.195312 232.5625 C 78.195312 232.484375 78.195312 232.484375 78.195312 232.402344 C 78.195312 232.085938 78.113281 231.367188 77.796875 230.808594 C 78.355469 230.167969 78.914062 229.449219 79.390625 228.652344 C 80.664062 228.816406 81.863281 228.496094 83.296875 228.175781 C 86.808594 227.300781 90.234375 227.617188 93.503906 228.972656 C 93.820312 229.050781 93.984375 228.574219 93.742188 228.496094 C 91.667969 227.457031 89.515625 226.820312 87.207031 226.820312 C 84.890625 226.742188 82.339844 227.855469 79.949219 227.777344 C 81.941406 224.269531 83.539062 220.679688 85.929688 217.492188 C 86.167969 217.492188 86.410156 217.414062 86.644531 217.253906 C 86.726562 217.171875 86.808594 217.09375 86.886719 217.09375 C 87.207031 217.015625 87.523438 216.773438 87.683594 216.539062 C 88.003906 216.140625 88.164062 215.578125 88.003906 215.097656 C 87.921875 214.78125 87.683594 214.464844 87.285156 214.382812 C 86.566406 214.300781 86.011719 214.382812 85.449219 214.941406 C 84.972656 215.417969 84.734375 216.058594 84.890625 216.695312 C 84.972656 216.855469 84.972656 217.015625 85.132812 217.09375 C 83.378906 219.085938 81.941406 221.242188 80.664062 223.550781 C 79.867188 224.910156 79.230469 226.261719 78.433594 227.457031 C 78.355469 227.457031 78.273438 227.457031 78.273438 227.378906 C 77.796875 227.21875 77.476562 228.019531 77.957031 228.175781 C 77.316406 229.050781 76.679688 229.847656 75.882812 230.492188 C 76.4375 229.449219 76.839844 228.335938 77.238281 227.140625 C 77.398438 227.058594 77.558594 226.980469 77.714844 226.742188 C 79.3125 223.871094 80.664062 220.84375 81.863281 217.8125 C 83.617188 215.742188 85.613281 213.902344 87.921875 212.308594 C 91.910156 209.515625 100.679688 203.460938 105.542969 205.132812 C 105.703125 205.214844 105.863281 204.894531 105.703125 204.816406 C 103.550781 203.859375 101.792969 204.257812 99.640625 205.132812 C 95.65625 206.726562 91.667969 208.71875 88.082031 211.113281 C 86.246094 212.308594 84.574219 213.667969 83.058594 215.097656 C 83.539062 213.824219 84.175781 212.46875 84.8125 211.113281 C 84.972656 210.875 85.132812 210.714844 85.371094 210.476562 C 88.164062 207.445312 91.828125 205.851562 95.015625 203.460938 C 98.046875 201.226562 99.964844 197.960938 103.152344 195.808594 C 106.898438 193.253906 113.4375 189.589844 118.0625 191.738281 C 118.300781 191.820312 118.539062 191.5 118.300781 191.339844 C 111.601562 187.914062 102.117188 195.089844 97.808594 199.714844 C 94.382812 203.382812 89.597656 205.132812 85.929688 208.566406 C 86.410156 207.125 86.726562 205.691406 86.726562 204.335938 C 86.726562 204.335938 86.808594 204.335938 86.808594 204.257812 C 87.285156 204.257812 87.683594 204.015625 88.003906 203.539062 C 88.238281 203.140625 88.238281 202.664062 88.164062 202.265625 C 88.164062 201.941406 88.082031 201.625 87.839844 201.390625 C 87.441406 200.746094 86.644531 200.667969 86.089844 201.144531 C 86.011719 201.226562 85.929688 201.390625 85.847656 201.464844 C 85.6875 201.542969 85.53125 201.707031 85.371094 201.941406 C 84.972656 202.585938 85.050781 203.460938 85.613281 204.015625 C 85.6875 204.097656 85.769531 204.179688 85.929688 204.257812 C 85.769531 206.328125 84.972656 208.566406 84.015625 210.714844 C 82.183594 213.027344 80.746094 215.578125 79.390625 218.289062 C 80.1875 213.347656 80.746094 208.320312 81.0625 203.382812 C 81.226562 203.382812 81.386719 203.382812 81.464844 203.21875 C 81.625 203.0625 81.703125 202.820312 81.863281 202.585938 C 81.863281 202.585938 81.863281 202.585938 81.941406 202.585938 C 82.023438 202.503906 82.101562 202.421875 82.101562 202.339844 C 82.421875 202.105469 82.582031 201.625 82.5 201.226562 C 82.5 201.144531 82.5 201.144531 82.5 201.144531 C 85.289062 198.039062 88.164062 195.011719 91.03125 191.980469 C 92.308594 190.703125 93.585938 189.1875 95.257812 188.390625 C 96.773438 187.59375 98.289062 187.59375 99.800781 186.957031 C 103.070312 185.601562 105.304688 182.730469 108.734375 181.535156 C 113.195312 179.9375 117.980469 180.261719 122.289062 182.089844 C 123.003906 182.414062 123.644531 181.375 122.921875 180.976562 C 116.46875 177.867188 109.210938 178.503906 103.390625 182.652344 C 100.917969 184.40625 98.84375 185.441406 96.054688 186.476562 C 94.78125 186.957031 93.742188 187.671875 92.707031 188.46875 C 88.878906 191.660156 85.449219 196.042969 82.339844 200.03125 L 82.339844 199.949219 C 82.421875 195.410156 82.261719 190.863281 81.464844 186.398438 C 81.464844 186.238281 81.386719 186.160156 81.226562 186.160156 C 81.226562 185.441406 81.226562 184.722656 81.226562 183.925781 C 81.542969 183.765625 81.785156 183.449219 81.863281 183.050781 C 81.863281 182.886719 81.863281 182.730469 81.941406 182.652344 C 82.023438 182.414062 82.101562 182.171875 82.101562 181.933594 C 82.101562 181.375 81.785156 180.894531 81.386719 180.660156 C 79.3125 175.554688 76.917969 170.769531 72.613281 167.261719 C 70.78125 165.746094 68.785156 164.710938 67.035156 163.035156 C 65.996094 162.082031 65.199219 160.882812 64.082031 159.929688 C 62.25 158.410156 60.734375 157.855469 58.421875 158.171875 C 57.941406 158.253906 58.101562 158.96875 58.5 158.96875 C 58.660156 158.96875 58.820312 158.96875 58.980469 158.96875 C 59.058594 161.601562 60.335938 163.914062 61.054688 166.464844 C 62.167969 170.371094 62.085938 174.4375 62.011719 178.425781 C 62.011719 178.664062 62.410156 178.664062 62.410156 178.425781 C 62.566406 175.078125 62.808594 171.648438 62.25 168.300781 C 61.769531 165.109375 60.414062 162.160156 59.777344 159.050781 C 62.886719 159.609375 64.5625 162.160156 66.792969 164.3125 C 68.386719 165.828125 70.300781 166.863281 71.976562 168.300781 C 75.804688 171.410156 78.433594 175.792969 79.867188 180.496094 C 78.511719 181.058594 78.671875 183.367188 79.949219 184.085938 C 80.109375 184.164062 80.265625 184.246094 80.347656 184.246094 C 79.070312 193.574219 77 202.503906 74.367188 211.433594 C 76.363281 201.707031 74.128906 190.941406 71.738281 181.535156 C 71.65625 181.214844 71.097656 181.292969 71.179688 181.691406 C 73.171875 192.777344 74.925781 202.902344 72.851562 214.066406 C 72.214844 198.675781 69.105469 183.128906 64.082031 168.617188 C 64.480469 168.535156 64.800781 168.460938 65.039062 168.136719 C 66.234375 166.941406 64.960938 165.03125 63.445312 165.347656 C 62.808594 165.507812 62.25 165.984375 62.085938 166.625 C 61.929688 167.261719 62.25 167.902344 62.808594 168.21875 C 62.886719 168.300781 62.886719 168.300781 62.964844 168.378906 C 64.960938 176.589844 67.589844 184.644531 69.027344 193.015625 C 69.984375 198.515625 70.300781 204.015625 70.621094 209.597656 C 70.539062 209.199219 70.460938 208.71875 70.382812 208.320312 C 69.261719 202.023438 67.511719 195.886719 64.71875 190.144531 C 64.71875 190.0625 64.800781 189.988281 64.800781 189.828125 C 64.800781 189.664062 64.800781 189.589844 64.800781 189.507812 C 64.878906 189.265625 64.800781 188.949219 64.640625 188.710938 C 64.402344 188.390625 64.160156 188.152344 63.761719 187.992188 C 63.363281 187.835938 62.964844 188.070312 62.648438 188.3125 C 62.167969 188.710938 62.085938 189.265625 62.25 189.828125 C 62.25 190.0625 62.328125 190.386719 62.410156 190.625 C 62.566406 191.023438 63.125 191.101562 63.523438 190.941406 C 63.683594 190.941406 63.761719 190.941406 63.921875 190.941406 C 67.113281 198.039062 68.863281 205.375 69.742188 213.027344 C 70.0625 215.742188 70.0625 218.53125 70.222656 221.320312 C 69.984375 220.28125 69.742188 219.246094 69.503906 218.210938 C 68.386719 213.425781 67.113281 208.640625 65.757812 203.9375 C 63.207031 194.929688 60.09375 186.078125 56.828125 177.308594 C 57.304688 177.070312 57.625 176.589844 57.625 176.113281 C 57.625 176.113281 57.625 176.113281 57.625 176.035156 C 57.863281 175.394531 57.703125 174.679688 57.144531 174.28125 C 56.507812 173.800781 55.632812 173.882812 55.074219 174.4375 C 55.074219 174.4375 55.074219 174.4375 55.074219 174.515625 C 54.910156 174.597656 54.835938 174.679688 54.753906 174.757812 C 54.675781 174.835938 54.59375 174.914062 54.59375 175.078125 C 54.59375 175.078125 54.59375 175.15625 54.511719 175.15625 C 54.355469 175.476562 54.355469 175.710938 54.511719 176.113281 C 54.59375 176.351562 54.753906 176.589844 54.992188 176.75 C 55.234375 177.070312 55.472656 177.386719 55.871094 177.46875 C 58.023438 187.671875 62.085938 197.640625 64.800781 207.6875 C 66.15625 212.628906 67.351562 217.570312 68.628906 222.59375 C 68.707031 222.835938 68.785156 223.070312 68.863281 223.394531 C 68.628906 223.152344 68.308594 222.835938 68.066406 222.59375 C 66.074219 216.773438 63.207031 211.273438 61.210938 205.453125 C 59.058594 199.15625 57.625 192.617188 57.386719 185.917969 C 57.386719 185.601562 56.828125 185.601562 56.90625 185.917969 C 56.984375 197.640625 60.734375 210.078125 66.234375 220.679688 C 60.015625 214.144531 54.277344 207.207031 50.527344 198.835938 C 50.6875 198.199219 50.289062 197.402344 49.570312 197.238281 C 49.253906 197.082031 48.855469 197.003906 48.613281 197.238281 C 47.898438 197.71875 47.578125 198.757812 48.296875 199.472656 C 48.695312 199.871094 49.332031 199.949219 49.890625 199.714844 C 52.683594 206.171875 56.347656 211.671875 60.574219 216.855469 C 59.21875 215.578125 57.785156 214.300781 56.507812 212.949219 C 52.359375 208.71875 48.457031 204.097656 44.386719 199.714844 C 44.546875 195.808594 44.148438 191.898438 44.546875 187.914062 C 45.027344 183.128906 46.0625 178.585938 47.816406 174.199219 C 50.289062 167.980469 57.304688 165.1875 58.101562 158.171875 C 58.183594 157.773438 57.464844 157.695312 57.386719 158.09375 C 56.1875 163.117188 52.761719 165.109375 49.652344 168.777344 C 47.660156 171.089844 46.621094 174.039062 45.664062 176.910156 C 43.589844 183.210938 41.757812 190.941406 42.632812 197.800781 C 40.800781 195.886719 38.964844 194.050781 37.054688 192.378906 C 37.609375 191.980469 37.851562 191.183594 37.453125 190.542969 C 37.210938 190.144531 36.734375 189.90625 36.257812 189.828125 C 36.257812 189.828125 36.257812 189.828125 36.175781 189.828125 C 35.058594 189.507812 34.421875 190.785156 34.742188 191.660156 C 34.980469 192.296875 35.539062 192.695312 36.175781 192.695312 C 37.53125 194.53125 38.964844 196.285156 40.402344 197.960938 C 35.699219 199.714844 30.515625 198.757812 25.492188 199.714844 C 21.347656 200.511719 16.480469 199.871094 12.496094 201.390625 C 10.824219 202.023438 9.703125 203.21875 8.191406 204.097656 C 6.679688 204.976562 4.84375 204.976562 3.40625 206.011719 C 1.253906 207.523438 0.300781 210.394531 0.21875 212.949219 C 0.21875 213.425781 0.933594 213.503906 1.097656 213.027344 C 1.652344 210.792969 2.050781 208.320312 4.046875 206.890625 C 4.601562 206.492188 5.402344 206.328125 6.277344 206.171875 C 6.355469 206.328125 6.515625 206.492188 6.753906 206.492188 C 9.863281 206.492188 13.054688 206.648438 16.164062 207.445312 C 16.40625 207.523438 16.5625 207.125 16.242188 207.046875 C 13.851562 206.328125 11.539062 205.773438 9.066406 205.613281 C 9.148438 205.613281 9.230469 205.53125 9.230469 205.53125 C 10.660156 204.816406 11.621094 203.617188 13.214844 202.984375 C 15.445312 202.1875 17.917969 202.421875 20.230469 202.265625 C 24.054688 202.023438 27.644531 200.589844 31.472656 200.511719 C 35.457031 200.429688 38.007812 200.667969 41.519531 199.234375 C 46.222656 204.496094 51.246094 209.597656 55.949219 214.78125 C 58.738281 217.890625 62.011719 220.441406 64.71875 223.550781 C 66.554688 225.625 68.148438 227.9375 69.902344 229.929688 C 64.640625 227.457031 60.890625 223.632812 56.746094 219.726562 C 57.144531 219.566406 57.386719 219.246094 57.386719 218.6875 C 57.386719 218.449219 57.386719 218.210938 57.386719 218.050781 C 57.625 217.652344 57.625 217.09375 57.226562 216.773438 C 56.507812 216.140625 55.632812 215.976562 54.753906 216.457031 C 54.035156 216.9375 53.714844 217.8125 54.035156 218.609375 C 54.277344 219.167969 54.753906 219.484375 55.234375 219.566406 C 55.3125 219.644531 55.472656 219.726562 55.550781 219.804688 C 55.632812 219.804688 55.632812 219.804688 55.710938 219.882812 C 57.941406 222.835938 60.257812 225.707031 63.046875 228.019531 C 62.808594 227.9375 62.566406 227.855469 62.410156 227.699219 C 59.058594 225.625 56.03125 222.992188 53.398438 220.679688 C 48.375 216.21875 44.070312 211.113281 39.683594 206.011719 C 39.605469 205.929688 39.527344 205.851562 39.527344 205.851562 C 39.445312 205.453125 39.207031 205.054688 38.886719 204.65625 C 38.886719 204.578125 38.808594 204.578125 38.808594 204.496094 C 38.007812 203.617188 36.734375 204.578125 36.414062 205.453125 C 36.097656 206.328125 36.496094 207.289062 37.453125 207.605469 C 38.007812 207.765625 38.648438 207.605469 39.046875 207.207031 C 42.953125 211.753906 46.859375 216.292969 51.085938 220.441406 C 50.765625 220.28125 50.449219 220.203125 50.210938 220.042969 C 46.9375 218.6875 43.910156 216.140625 40.402344 215.578125 C 40.160156 215.578125 40.003906 215.894531 40.324219 215.976562 C 43.511719 216.539062 46.304688 219.328125 49.253906 220.679688 C 51.324219 221.640625 53.082031 222.671875 54.835938 223.792969 C 55.074219 224.03125 55.3125 224.269531 55.550781 224.429688 C 56.109375 224.910156 56.667969 225.386719 57.226562 225.863281 C 55.871094 225.464844 54.511719 225.226562 53.160156 224.910156 C 48.695312 224.03125 43.832031 224.269531 39.527344 222.992188 C 35.140625 221.796875 32.109375 218.449219 27.964844 216.617188 C 24.855469 215.179688 21.585938 214.542969 18.15625 214.621094 C 17.835938 214.621094 17.835938 215.179688 18.15625 215.179688 C 22.941406 215.496094 27.167969 216.855469 31.15625 219.566406 C 34.023438 221.558594 36.496094 223.46875 39.925781 224.269531 C 43.910156 225.226562 48.058594 225.144531 52.042969 225.945312 C 54.753906 226.503906 57.386719 227.300781 60.09375 228.019531 C 60.335938 228.175781 60.492188 228.335938 60.734375 228.496094 C 58.738281 228.019531 56.828125 227.21875 54.835938 226.980469 C 52.441406 226.742188 49.890625 227.140625 47.5 227.378906 C 42.554688 227.855469 37.851562 228.652344 33.066406 230.167969 C 32.828125 230.246094 32.90625 230.644531 33.226562 230.644531 C 38.410156 229.371094 43.75 228.894531 49.09375 228.417969 C 51.164062 228.253906 53.160156 228.175781 55.152344 228.417969 C 55.074219 228.496094 55.074219 228.652344 54.992188 228.734375 C 54.992188 228.816406 54.992188 228.894531 54.992188 228.972656 C 54.753906 229.292969 54.59375 229.613281 54.59375 230.011719 C 54.59375 230.808594 55.152344 231.523438 55.871094 231.6875 C 56.667969 231.84375 57.464844 231.523438 57.863281 230.808594 C 58.023438 230.570312 58.023438 230.328125 58.101562 230.011719 C 59.136719 230.246094 60.175781 230.570312 61.132812 230.96875 C 56.667969 231.605469 52.285156 232.402344 47.898438 233.835938 C 42.078125 235.828125 36.015625 238.144531 29.796875 236.789062 C 26.769531 236.148438 23.980469 234.714844 21.1875 233.519531 C 18.234375 232.242188 14.96875 231.367188 12.65625 229.050781 C 11.058594 227.457031 9.863281 225.707031 8.191406 224.191406 C 5.160156 221.476562 1.972656 219.484375 1.730469 214.941406 C 1.730469 214.382812 0.777344 214.382812 0.777344 214.941406 C 1.097656 220.601562 6.199219 223.152344 9.546875 227.058594 C 11.300781 229.132812 12.417969 230.726562 14.886719 232.085938 C 18.078125 233.835938 21.585938 235.273438 24.933594 236.707031 C 29.398438 238.542969 34.183594 238.621094 39.363281 237.34375 "/></g></g></svg>