<svg xmlns="http://www.w3.org/2000/svg" xmlns:xlink="http://www.w3.org/1999/xlink" width="468" zoomAndPan="magnify" viewBox="0 0 351 9" height="12" preserveAspectRatio="xMidYMid meet" version="1.2"><defs><clipPath id="1f4c78dc49"><path d="M 32 0 L 175 0 L 175 7.878906 L 32 7.878906 Z M 32 0 "/></clipPath><clipPath id="ff2ec5fa49"><path d="M 176 0 L 318 0 L 318 7.878906 L 176 7.878906 Z M 176 0 "/></clipPath></defs><g id="b64f5099f8"><path style=" stroke:none;fill-rule:nonzero;fill:#000000;fill-opacity:1;" d="M 20.378906 3.730469 C 20.042969 3.070312 19.53125 2.519531 18.90625 2.15625 C 19.53125 1.789062 20.046875 1.238281 20.378906 0.582031 C 21.054688 1.34375 21.957031 1.910156 22.96875 2.15625 C 21.957031 2.402344 21.0625 2.957031 20.378906 3.730469 Z M 20.378906 3.730469 "/><path style=" stroke:none;fill-rule:nonzero;fill:#000000;fill-opacity:1;" d="M 32.074219 2.691406 C 31.988281 2.832031 31.898438 2.957031 31.796875 3.078125 C 31.691406 3.199219 31.589844 3.304688 31.472656 3.410156 C 31.359375 3.515625 31.234375 3.617188 31.101562 3.714844 C 31.082031 3.730469 31.066406 3.742188 31.046875 3.75 L 31.023438 3.769531 C 31.023438 3.769531 31.003906 3.78125 30.996094 3.78125 L 30.894531 3.839844 C 30.859375 3.863281 30.820312 3.882812 30.789062 3.902344 L 30.738281 3.929688 L 30.6875 3.953125 C 30.542969 4.027344 30.394531 4.09375 30.242188 4.152344 C 30.085938 4.214844 29.933594 4.261719 29.769531 4.304688 C 29.609375 4.347656 29.449219 4.378906 29.285156 4.40625 C 28.628906 4.503906 27.953125 4.453125 27.324219 4.292969 C 26.691406 4.132812 26.117188 3.863281 25.609375 3.535156 C 25.105469 3.210938 24.679688 2.839844 24.332031 2.460938 C 24.28125 2.402344 24.222656 2.339844 24.175781 2.289062 C 23.945312 2.535156 23.757812 2.773438 23.597656 2.992188 C 23.570312 3.03125 23.542969 3.066406 23.519531 3.105469 L 23.449219 3.210938 C 23.402344 3.285156 23.359375 3.351562 23.320312 3.417969 C 23.242188 3.542969 23.175781 3.65625 23.132812 3.75 C 23.085938 3.839844 23.046875 3.914062 23.023438 3.96875 L 22.984375 4.039062 L 23.015625 3.960938 C 23.035156 3.90625 23.066406 3.835938 23.105469 3.734375 C 23.152344 3.636719 23.203125 3.523438 23.265625 3.382812 C 23.300781 3.316406 23.339844 3.246094 23.378906 3.171875 L 23.441406 3.058594 C 23.460938 3.019531 23.488281 2.980469 23.511719 2.9375 C 23.660156 2.699219 23.839844 2.433594 24.0625 2.160156 C 23.835938 1.890625 23.65625 1.625 23.511719 1.386719 C 23.460938 1.304688 23.414062 1.226562 23.378906 1.152344 C 23.339844 1.078125 23.300781 1.007812 23.265625 0.941406 C 23.195312 0.808594 23.144531 0.6875 23.105469 0.589844 C 23.066406 0.488281 23.035156 0.414062 23.015625 0.363281 L 22.984375 0.28125 L 23.023438 0.355469 C 23.046875 0.410156 23.082031 0.476562 23.132812 0.574219 C 23.183594 0.667969 23.242188 0.78125 23.320312 0.90625 C 23.359375 0.972656 23.402344 1.039062 23.449219 1.113281 C 23.492188 1.1875 23.542969 1.257812 23.597656 1.332031 C 23.75 1.550781 23.945312 1.789062 24.175781 2.035156 C 24.230469 1.976562 24.28125 1.917969 24.332031 1.855469 C 24.679688 1.484375 25.105469 1.105469 25.609375 0.78125 C 26.113281 0.457031 26.691406 0.183594 27.324219 0.0234375 C 27.953125 -0.136719 28.628906 -0.1875 29.285156 -0.0898438 C 29.449219 -0.0625 29.617188 -0.0273438 29.769531 0.0117188 C 29.933594 0.0507812 30.085938 0.105469 30.242188 0.164062 C 30.394531 0.222656 30.542969 0.289062 30.6875 0.363281 C 30.707031 0.371094 30.726562 0.382812 30.738281 0.390625 L 30.789062 0.414062 C 30.820312 0.4375 30.859375 0.457031 30.894531 0.476562 L 30.996094 0.535156 C 30.996094 0.535156 31.035156 0.554688 31.046875 0.570312 C 31.066406 0.582031 31.085938 0.59375 31.101562 0.601562 C 31.234375 0.703125 31.359375 0.800781 31.472656 0.90625 C 31.589844 1.011719 31.699219 1.125 31.796875 1.238281 C 31.898438 1.359375 31.988281 1.476562 32.074219 1.625 C 32.113281 1.699219 32.152344 1.769531 32.183594 1.855469 C 32.214844 1.941406 32.242188 2.042969 32.242188 2.15625 C 32.242188 2.273438 32.214844 2.367188 32.183594 2.453125 C 32.152344 2.539062 32.113281 2.613281 32.074219 2.6875 Z M 31.636719 2.070312 C 31.621094 2.027344 31.597656 1.984375 31.570312 1.929688 C 31.519531 1.828125 31.441406 1.730469 31.359375 1.632812 C 31.273438 1.53125 31.183594 1.433594 31.085938 1.339844 C 30.988281 1.246094 30.886719 1.152344 30.777344 1.074219 L 30.738281 1.046875 C 30.738281 1.046875 30.710938 1.027344 30.699219 1.019531 L 30.609375 0.960938 C 30.609375 0.960938 30.550781 0.925781 30.519531 0.90625 L 30.472656 0.878906 C 30.472656 0.878906 30.441406 0.859375 30.429688 0.855469 C 30.304688 0.78125 30.171875 0.722656 30.042969 0.667969 C 29.90625 0.609375 29.769531 0.5625 29.628906 0.515625 C 29.488281 0.476562 29.34375 0.4375 29.195312 0.410156 C 28.609375 0.296875 27.996094 0.308594 27.402344 0.421875 C 26.808594 0.542969 26.25 0.761719 25.75 1.039062 C 25.253906 1.320312 24.816406 1.652344 24.453125 1.988281 C 24.394531 2.042969 24.339844 2.09375 24.285156 2.15625 C 24.339844 2.207031 24.394531 2.261719 24.453125 2.320312 C 24.816406 2.660156 25.25 2.992188 25.75 3.269531 C 26.25 3.550781 26.816406 3.769531 27.402344 3.886719 C 27.996094 4.007812 28.609375 4.019531 29.195312 3.902344 C 29.34375 3.875 29.488281 3.835938 29.628906 3.796875 C 29.769531 3.753906 29.90625 3.703125 30.042969 3.644531 C 30.175781 3.582031 30.304688 3.523438 30.429688 3.457031 L 30.472656 3.429688 L 30.519531 3.402344 C 30.519531 3.402344 30.582031 3.371094 30.609375 3.351562 L 30.699219 3.289062 L 30.738281 3.265625 C 30.738281 3.265625 30.765625 3.246094 30.777344 3.238281 C 30.878906 3.15625 30.988281 3.070312 31.085938 2.980469 C 31.183594 2.886719 31.273438 2.785156 31.359375 2.6875 C 31.441406 2.585938 31.511719 2.488281 31.570312 2.386719 C 31.597656 2.339844 31.621094 2.292969 31.636719 2.25 C 31.648438 2.207031 31.65625 2.175781 31.65625 2.15625 C 31.65625 2.136719 31.65625 2.101562 31.636719 2.0625 Z M 31.636719 2.070312 "/><g clip-rule="nonzero" clip-path="url(#1f4c78dc49)"><path style=" stroke:none;fill-rule:nonzero;fill:#000000;fill-opacity:1;" d="M 174.128906 7.140625 C 174.128906 7.140625 174.109375 7.1875 174.097656 7.214844 C 174.085938 7.242188 174.070312 7.261719 174.058594 7.289062 C 174.046875 7.3125 174.035156 7.335938 174.015625 7.359375 C 173.996094 7.378906 173.980469 7.40625 173.960938 7.425781 C 173.890625 7.511719 173.808594 7.59375 173.710938 7.652344 C 173.613281 7.710938 173.511719 7.757812 173.402344 7.792969 C 173.1875 7.859375 172.957031 7.878906 172.730469 7.871094 C 172.503906 7.867188 172.273438 7.832031 172.039062 7.773438 C 171.808594 7.71875 171.582031 7.640625 171.351562 7.546875 C 171.234375 7.5 171.125 7.445312 171.007812 7.394531 C 170.890625 7.335938 170.78125 7.273438 170.664062 7.207031 C 170.554688 7.140625 170.441406 7.070312 170.332031 6.988281 L 170.246094 6.929688 C 170.246094 6.929688 170.195312 6.890625 170.164062 6.871094 L 170.046875 6.777344 L 170.007812 6.742188 C 169.792969 6.570312 169.59375 6.378906 169.40625 6.171875 C 169.214844 5.964844 169.035156 5.753906 168.859375 5.527344 C 168.742188 5.375 168.632812 5.222656 168.523438 5.070312 C 168.414062 4.917969 168.304688 4.765625 168.203125 4.613281 C 167.988281 4.304688 167.78125 3.996094 167.570312 3.695312 C 167.464844 3.550781 167.355469 3.398438 167.246094 3.257812 C 167.136719 3.113281 167.019531 2.972656 166.90625 2.839844 C 166.671875 2.566406 166.421875 2.308594 166.15625 2.0625 C 165.890625 1.824219 165.613281 1.597656 165.324219 1.40625 C 165.035156 1.207031 164.722656 1.039062 164.40625 0.902344 C 164.386719 0.894531 164.367188 0.886719 164.351562 0.875 L 164.292969 0.847656 L 164.167969 0.800781 C 164.085938 0.773438 164.007812 0.746094 163.925781 0.722656 C 163.839844 0.703125 163.757812 0.675781 163.671875 0.65625 C 163.589844 0.640625 163.503906 0.621094 163.421875 0.601562 C 163.253906 0.574219 163.078125 0.554688 162.90625 0.546875 L 162.648438 0.546875 C 162.601562 0.546875 162.5625 0.546875 162.515625 0.546875 C 162.472656 0.546875 162.433594 0.546875 162.386719 0.546875 C 161.699219 0.589844 161.019531 0.789062 160.414062 1.125 C 160.257812 1.210938 160.109375 1.300781 159.96875 1.398438 C 159.828125 1.5 159.691406 1.605469 159.554688 1.722656 C 159.425781 1.835938 159.304688 1.960938 159.183594 2.089844 L 159.097656 2.1875 L 159.074219 2.214844 L 159.089844 2.214844 L 159.164062 2.234375 L 159.195312 2.234375 L 159.226562 2.25 C 159.316406 2.269531 159.40625 2.289062 159.5 2.308594 C 159.859375 2.394531 160.222656 2.492188 160.574219 2.605469 C 160.929688 2.726562 161.285156 2.867188 161.628906 3.039062 C 161.96875 3.210938 162.296875 3.417969 162.601562 3.683594 C 162.679688 3.75 162.75 3.816406 162.820312 3.886719 C 162.890625 3.960938 162.957031 4.035156 163.019531 4.113281 C 163.085938 4.195312 163.144531 4.28125 163.203125 4.367188 C 163.257812 4.453125 163.3125 4.546875 163.355469 4.636719 C 163.402344 4.730469 163.441406 4.832031 163.480469 4.925781 C 163.511719 5.023438 163.542969 5.125 163.5625 5.222656 C 163.582031 5.324219 163.601562 5.429688 163.613281 5.527344 C 163.628906 5.628906 163.632812 5.734375 163.632812 5.832031 C 163.632812 5.859375 163.632812 5.886719 163.632812 5.914062 L 163.632812 5.992188 C 163.632812 6.046875 163.628906 6.097656 163.621094 6.152344 C 163.609375 6.257812 163.589844 6.363281 163.5625 6.472656 C 163.535156 6.578125 163.5 6.683594 163.445312 6.78125 C 163.394531 6.882812 163.335938 6.980469 163.273438 7.070312 C 163.136719 7.246094 162.957031 7.394531 162.761719 7.492188 C 162.570312 7.59375 162.367188 7.660156 162.167969 7.699219 C 161.96875 7.738281 161.769531 7.746094 161.570312 7.738281 C 161.367188 7.738281 161.175781 7.707031 160.980469 7.671875 C 160.601562 7.601562 160.226562 7.46875 159.878906 7.289062 C 159.789062 7.242188 159.703125 7.195312 159.621094 7.140625 C 159.574219 7.113281 159.535156 7.089844 159.5 7.0625 C 159.480469 7.046875 159.460938 7.035156 159.441406 7.023438 L 159.382812 6.976562 C 159.222656 6.855469 159.074219 6.730469 158.929688 6.589844 C 158.789062 6.449219 158.660156 6.296875 158.535156 6.140625 C 158.414062 5.980469 158.3125 5.808594 158.214844 5.632812 C 158.027344 5.28125 157.890625 4.890625 157.832031 4.484375 C 157.777344 4.082031 157.789062 3.65625 157.898438 3.257812 C 157.949219 3.058594 158.019531 2.867188 158.109375 2.679688 L 158.128906 2.640625 C 158.019531 2.625 157.910156 2.621094 157.800781 2.605469 L 157.53125 2.582031 C 157.441406 2.574219 157.351562 2.566406 157.257812 2.558594 C 155.8125 2.460938 154.355469 2.421875 152.90625 2.386719 C 151.445312 2.359375 149.996094 2.347656 148.535156 2.347656 C 147.078125 2.347656 145.621094 2.347656 144.167969 2.367188 C 143.441406 2.375 142.710938 2.382812 141.980469 2.394531 L 141.433594 2.394531 L 141.296875 2.40625 L 40.414062 2.40625 C 38.234375 2.40625 36.261719 2.375 34.828125 2.328125 C 34.351562 2.308594 33.933594 2.292969 33.582031 2.269531 C 33.527344 2.515625 33.3125 2.699219 33.054688 2.699219 C 32.757812 2.699219 32.511719 2.449219 32.511719 2.140625 L 32.511719 2.128906 C 32.519531 1.824219 32.757812 1.578125 33.054688 1.578125 C 33.304688 1.578125 33.511719 1.75 33.578125 1.984375 C 33.925781 1.960938 34.34375 1.941406 34.828125 1.921875 C 36.261719 1.871094 38.234375 1.84375 40.414062 1.84375 L 141.433594 1.84375 L 141.980469 1.828125 C 142.710938 1.816406 143.441406 1.808594 144.167969 1.804688 C 145.628906 1.789062 147.085938 1.785156 148.542969 1.785156 C 150 1.785156 151.460938 1.796875 152.925781 1.824219 C 154.382812 1.855469 155.847656 1.890625 157.304688 1.996094 C 157.394531 2.003906 157.484375 2.007812 157.582031 2.015625 L 157.859375 2.042969 C 158.039062 2.054688 158.226562 2.074219 158.40625 2.09375 C 158.425781 2.09375 158.445312 2.09375 158.464844 2.09375 C 158.484375 2.070312 158.503906 2.050781 158.523438 2.023438 C 158.554688 1.984375 158.582031 1.941406 158.613281 1.910156 C 158.648438 1.871094 158.679688 1.835938 158.710938 1.796875 L 158.808594 1.683594 C 158.9375 1.539062 159.078125 1.40625 159.226562 1.273438 C 159.375 1.144531 159.523438 1.027344 159.683594 0.914062 C 159.847656 0.800781 160.007812 0.703125 160.175781 0.609375 C 160.851562 0.238281 161.609375 0.015625 162.375 -0.0273438 C 162.421875 -0.0273438 162.472656 -0.0273438 162.515625 -0.0351562 C 162.5625 -0.0351562 162.613281 -0.0351562 162.660156 -0.0351562 L 162.949219 -0.0351562 C 163.144531 -0.015625 163.332031 0.00390625 163.523438 0.03125 C 163.621094 0.0507812 163.710938 0.0703125 163.808594 0.0898438 C 163.90625 0.117188 163.996094 0.136719 164.085938 0.164062 C 164.175781 0.195312 164.265625 0.222656 164.363281 0.257812 L 164.5 0.308594 L 164.5625 0.335938 C 164.5625 0.335938 164.609375 0.355469 164.628906 0.363281 C 164.980469 0.515625 165.316406 0.703125 165.632812 0.914062 C 165.949219 1.125 166.253906 1.367188 166.53125 1.625 C 166.8125 1.882812 167.070312 2.15625 167.324219 2.449219 C 167.445312 2.59375 167.570312 2.738281 167.683594 2.890625 C 167.800781 3.046875 167.910156 3.199219 168.019531 3.351562 C 168.460938 3.960938 168.851562 4.59375 169.296875 5.164062 C 169.464844 5.375 169.632812 5.582031 169.808594 5.773438 C 169.980469 5.964844 170.167969 6.140625 170.355469 6.304688 L 170.386719 6.339844 L 170.425781 6.363281 L 170.496094 6.425781 C 170.496094 6.425781 170.542969 6.464844 170.570312 6.476562 L 170.640625 6.53125 C 170.738281 6.605469 170.832031 6.671875 170.9375 6.730469 C 171.039062 6.789062 171.136719 6.847656 171.238281 6.902344 C 171.34375 6.957031 171.445312 7.007812 171.550781 7.054688 C 171.757812 7.148438 171.960938 7.226562 172.167969 7.28125 C 172.367188 7.339844 172.574219 7.378906 172.761719 7.394531 C 172.957031 7.40625 173.136719 7.394531 173.296875 7.359375 C 173.460938 7.320312 173.59375 7.246094 173.683594 7.148438 C 173.78125 7.046875 173.832031 6.914062 173.859375 6.78125 C 173.871094 6.714844 173.871094 6.644531 173.871094 6.578125 C 173.871094 6.511719 173.867188 6.4375 173.851562 6.371094 C 173.832031 6.238281 173.800781 6.113281 173.769531 6 C 173.738281 5.886719 173.699219 5.78125 173.660156 5.6875 C 173.640625 5.640625 173.621094 5.59375 173.609375 5.554688 L 173.5625 5.441406 C 173.550781 5.410156 173.53125 5.375 173.523438 5.34375 C 173.511719 5.308594 173.496094 5.28125 173.492188 5.257812 C 173.453125 5.15625 173.433594 5.097656 173.453125 5.089844 C 173.464844 5.078125 173.511719 5.117188 173.589844 5.203125 C 173.609375 5.222656 173.628906 5.25 173.644531 5.277344 C 173.664062 5.300781 173.691406 5.335938 173.710938 5.363281 C 173.738281 5.394531 173.757812 5.429688 173.78125 5.46875 C 173.808594 5.507812 173.832031 5.546875 173.859375 5.59375 C 173.910156 5.6875 173.96875 5.789062 174.019531 5.90625 C 174.070312 6.027344 174.125 6.160156 174.164062 6.3125 C 174.183594 6.390625 174.195312 6.472656 174.207031 6.558594 C 174.214844 6.644531 174.21875 6.738281 174.207031 6.828125 C 174.203125 6.921875 174.183594 7.027344 174.144531 7.128906 Z M 159 2.773438 L 158.871094 2.746094 L 158.808594 2.734375 C 158.808594 2.734375 158.761719 2.734375 158.742188 2.726562 L 158.71875 2.726562 C 158.71875 2.726562 158.699219 2.753906 158.691406 2.773438 L 158.660156 2.824219 C 158.640625 2.859375 158.621094 2.898438 158.601562 2.9375 C 158.53125 3.089844 158.464844 3.25 158.425781 3.410156 C 158.34375 3.734375 158.332031 4.082031 158.375 4.414062 C 158.425781 4.75 158.535156 5.078125 158.699219 5.382812 C 158.78125 5.535156 158.871094 5.679688 158.976562 5.8125 C 159.078125 5.953125 159.1875 6.078125 159.3125 6.199219 C 159.433594 6.316406 159.5625 6.429688 159.703125 6.53125 L 159.757812 6.570312 C 159.757812 6.570312 159.789062 6.597656 159.808594 6.609375 C 159.839844 6.636719 159.878906 6.65625 159.910156 6.675781 C 159.980469 6.722656 160.058594 6.761719 160.128906 6.804688 C 160.433594 6.960938 160.761719 7.074219 161.089844 7.140625 C 161.257812 7.175781 161.425781 7.195312 161.59375 7.203125 C 161.761719 7.203125 161.925781 7.203125 162.085938 7.167969 C 162.238281 7.140625 162.394531 7.089844 162.523438 7.023438 C 162.660156 6.949219 162.769531 6.855469 162.859375 6.742188 C 162.949219 6.628906 163.015625 6.492188 163.054688 6.34375 C 163.074219 6.273438 163.085938 6.191406 163.097656 6.113281 C 163.097656 6.074219 163.105469 6.03125 163.109375 5.992188 L 163.109375 5.933594 C 163.109375 5.933594 163.109375 5.894531 163.109375 5.875 C 163.109375 5.789062 163.105469 5.707031 163.097656 5.621094 C 163.089844 5.542969 163.074219 5.457031 163.058594 5.375 C 163.039062 5.296875 163.019531 5.214844 162.988281 5.136719 C 162.960938 5.058594 162.929688 4.984375 162.890625 4.910156 C 162.75 4.613281 162.53125 4.351562 162.273438 4.128906 C 162.015625 3.902344 161.71875 3.714844 161.40625 3.5625 C 161.097656 3.402344 160.769531 3.269531 160.425781 3.164062 C 160.089844 3.050781 159.742188 2.957031 159.394531 2.878906 C 159.304688 2.859375 159.222656 2.839844 159.128906 2.820312 L 159.097656 2.820312 L 159.066406 2.804688 L 159 2.792969 Z M 159 2.773438 "/></g><path style=" stroke:none;fill-rule:nonzero;fill:#000000;fill-opacity:1;" d="M 329.972656 3.730469 C 329.296875 2.964844 328.394531 2.402344 327.378906 2.15625 C 328.394531 1.910156 329.289062 1.351562 329.972656 0.582031 C 330.308594 1.238281 330.820312 1.789062 331.445312 2.15625 C 330.820312 2.519531 330.300781 3.070312 329.972656 3.730469 Z M 329.972656 3.730469 "/><path style=" stroke:none;fill-rule:nonzero;fill:#000000;fill-opacity:1;" d="M 327.265625 0.589844 C 327.21875 0.6875 327.167969 0.800781 327.101562 0.941406 C 327.070312 1.007812 327.03125 1.078125 326.992188 1.152344 C 326.949219 1.226562 326.910156 1.304688 326.859375 1.386719 C 326.710938 1.625 326.527344 1.890625 326.308594 2.160156 C 326.535156 2.433594 326.714844 2.699219 326.859375 2.9375 C 326.882812 2.980469 326.910156 3.019531 326.929688 3.058594 L 326.992188 3.171875 C 327.03125 3.246094 327.070312 3.316406 327.101562 3.382812 C 327.171875 3.515625 327.226562 3.636719 327.265625 3.734375 C 327.300781 3.835938 327.335938 3.90625 327.355469 3.960938 L 327.386719 4.039062 L 327.347656 3.96875 C 327.320312 3.914062 327.289062 3.847656 327.238281 3.75 C 327.1875 3.65625 327.128906 3.542969 327.050781 3.417969 C 327.011719 3.351562 326.96875 3.285156 326.921875 3.210938 L 326.851562 3.105469 C 326.824219 3.066406 326.800781 3.03125 326.773438 2.992188 C 326.617188 2.773438 326.425781 2.535156 326.191406 2.289062 C 326.140625 2.347656 326.089844 2.40625 326.039062 2.460938 C 325.691406 2.832031 325.265625 3.210938 324.761719 3.535156 C 324.257812 3.863281 323.675781 4.132812 323.042969 4.292969 C 322.417969 4.453125 321.742188 4.503906 321.082031 4.40625 C 320.921875 4.378906 320.753906 4.347656 320.597656 4.304688 C 320.4375 4.265625 320.285156 4.214844 320.128906 4.152344 C 319.972656 4.09375 319.824219 4.027344 319.683594 3.953125 L 319.632812 3.929688 L 319.582031 3.902344 C 319.546875 3.882812 319.507812 3.863281 319.476562 3.839844 L 319.375 3.78125 C 319.375 3.78125 319.355469 3.777344 319.347656 3.769531 L 319.320312 3.75 C 319.320312 3.75 319.285156 3.722656 319.269531 3.714844 C 319.136719 3.621094 319.011719 3.515625 318.894531 3.410156 C 318.78125 3.304688 318.671875 3.191406 318.574219 3.078125 C 318.46875 2.957031 318.378906 2.839844 318.296875 2.691406 C 318.257812 2.621094 318.21875 2.546875 318.1875 2.460938 C 318.15625 2.375 318.128906 2.273438 318.128906 2.160156 C 318.128906 2.050781 318.15625 1.949219 318.1875 1.863281 C 318.21875 1.777344 318.257812 1.703125 318.296875 1.632812 C 318.378906 1.492188 318.46875 1.367188 318.574219 1.246094 C 318.675781 1.125 318.78125 1.019531 318.894531 0.914062 C 319.011719 0.808594 319.136719 0.707031 319.269531 0.609375 C 319.289062 0.59375 319.304688 0.582031 319.320312 0.574219 C 319.339844 0.5625 319.359375 0.546875 319.375 0.542969 L 319.476562 0.480469 C 319.507812 0.460938 319.546875 0.441406 319.582031 0.421875 L 319.632812 0.394531 C 319.632812 0.394531 319.671875 0.375 319.683594 0.371094 C 319.824219 0.296875 319.972656 0.230469 320.128906 0.171875 C 320.285156 0.109375 320.4375 0.0625 320.597656 0.015625 C 320.761719 -0.0234375 320.921875 -0.0546875 321.082031 -0.0820312 C 321.742188 -0.183594 322.417969 -0.128906 323.042969 0.03125 C 323.675781 0.191406 324.257812 0.460938 324.761719 0.789062 C 325.265625 1.113281 325.691406 1.484375 326.039062 1.863281 C 326.089844 1.921875 326.148438 1.984375 326.191406 2.042969 C 326.425781 1.796875 326.613281 1.558594 326.773438 1.339844 C 326.824219 1.265625 326.875 1.1875 326.921875 1.121094 C 326.96875 1.046875 327.011719 0.980469 327.050781 0.914062 C 327.128906 0.789062 327.1875 0.675781 327.238281 0.582031 C 327.285156 0.488281 327.320312 0.414062 327.347656 0.363281 L 327.386719 0.289062 L 327.355469 0.371094 C 327.335938 0.421875 327.300781 0.496094 327.265625 0.59375 Z M 325.910156 1.996094 C 325.546875 1.65625 325.109375 1.324219 324.613281 1.046875 C 324.117188 0.769531 323.546875 0.546875 322.960938 0.429688 C 322.367188 0.308594 321.753906 0.296875 321.167969 0.414062 C 321.019531 0.441406 320.875 0.480469 320.734375 0.523438 C 320.59375 0.5625 320.457031 0.613281 320.320312 0.675781 C 320.1875 0.734375 320.058594 0.792969 319.933594 0.859375 C 319.921875 0.867188 319.902344 0.878906 319.890625 0.886719 L 319.84375 0.914062 C 319.84375 0.914062 319.78125 0.945312 319.753906 0.96875 L 319.664062 1.027344 C 319.664062 1.027344 319.636719 1.046875 319.625 1.054688 L 319.585938 1.078125 C 319.484375 1.160156 319.378906 1.246094 319.277344 1.34375 C 319.179688 1.4375 319.089844 1.539062 319.007812 1.636719 C 318.921875 1.738281 318.851562 1.835938 318.792969 1.9375 C 318.765625 1.984375 318.742188 2.027344 318.730469 2.074219 C 318.714844 2.117188 318.710938 2.15625 318.710938 2.167969 C 318.710938 2.183594 318.710938 2.222656 318.730469 2.261719 C 318.742188 2.300781 318.765625 2.347656 318.792969 2.402344 C 318.84375 2.5 318.921875 2.601562 319.007812 2.699219 C 319.089844 2.800781 319.179688 2.898438 319.277344 2.992188 C 319.375 3.085938 319.476562 3.179688 319.585938 3.25 C 319.597656 3.257812 319.613281 3.269531 319.625 3.277344 L 319.644531 3.289062 L 319.664062 3.304688 L 319.753906 3.363281 C 319.753906 3.363281 319.8125 3.398438 319.84375 3.417969 L 319.890625 3.445312 L 319.933594 3.46875 C 320.058594 3.535156 320.191406 3.601562 320.320312 3.65625 C 320.457031 3.714844 320.59375 3.761719 320.734375 3.808594 C 320.875 3.847656 321.019531 3.886719 321.167969 3.914062 C 321.753906 4.027344 322.367188 4.015625 322.960938 3.902344 C 323.554688 3.78125 324.117188 3.5625 324.613281 3.285156 C 325.109375 3.003906 325.546875 2.671875 325.910156 2.335938 C 325.96875 2.28125 326.023438 2.226562 326.078125 2.167969 C 326.023438 2.117188 325.96875 2.0625 325.910156 2.003906 Z M 325.910156 1.996094 "/><g clip-rule="nonzero" clip-path="url(#ff2ec5fa49)"><path style=" stroke:none;fill-rule:nonzero;fill:#000000;fill-opacity:1;" d="M 317.296875 2.71875 C 317.039062 2.71875 316.824219 2.535156 316.765625 2.289062 C 316.425781 2.308594 316.007812 2.328125 315.523438 2.347656 C 314.089844 2.402344 312.117188 2.425781 309.933594 2.425781 L 208.910156 2.425781 L 208.363281 2.414062 C 207.632812 2.402344 206.902344 2.394531 206.175781 2.386719 C 204.71875 2.375 203.257812 2.367188 201.808594 2.367188 C 200.347656 2.367188 198.890625 2.382812 197.441406 2.40625 C 195.988281 2.441406 194.53125 2.472656 193.085938 2.582031 C 192.996094 2.585938 192.902344 2.59375 192.8125 2.601562 L 192.542969 2.625 C 192.433594 2.632812 192.324219 2.648438 192.214844 2.660156 L 192.234375 2.699219 C 192.324219 2.886719 192.394531 3.078125 192.445312 3.277344 C 192.550781 3.675781 192.570312 4.101562 192.511719 4.503906 C 192.453125 4.910156 192.316406 5.300781 192.128906 5.65625 C 192.035156 5.832031 191.929688 6 191.808594 6.160156 C 191.683594 6.316406 191.554688 6.472656 191.414062 6.609375 C 191.273438 6.75 191.125 6.875 190.960938 6.996094 L 190.902344 7.042969 C 190.902344 7.042969 190.867188 7.070312 190.847656 7.082031 C 190.808594 7.109375 190.761719 7.136719 190.722656 7.160156 C 190.640625 7.214844 190.554688 7.261719 190.464844 7.308594 C 190.117188 7.488281 189.75 7.621094 189.363281 7.691406 C 189.167969 7.734375 188.976562 7.753906 188.773438 7.757812 C 188.574219 7.765625 188.375 7.757812 188.175781 7.71875 C 187.976562 7.679688 187.769531 7.621094 187.582031 7.511719 C 187.386719 7.414062 187.214844 7.269531 187.070312 7.089844 C 187 7.003906 186.941406 6.902344 186.898438 6.804688 C 186.847656 6.703125 186.8125 6.597656 186.78125 6.492188 C 186.757812 6.382812 186.738281 6.277344 186.722656 6.171875 C 186.71875 6.117188 186.71875 6.066406 186.710938 6.011719 L 186.710938 5.933594 C 186.710938 5.933594 186.710938 5.878906 186.710938 5.855469 C 186.710938 5.746094 186.71875 5.648438 186.730469 5.546875 C 186.742188 5.441406 186.757812 5.34375 186.78125 5.242188 C 186.808594 5.144531 186.832031 5.035156 186.867188 4.945312 C 186.898438 4.84375 186.941406 4.75 186.988281 4.660156 C 187.035156 4.566406 187.085938 4.472656 187.144531 4.386719 C 187.199219 4.300781 187.257812 4.214844 187.324219 4.132812 C 187.386719 4.054688 187.453125 3.980469 187.523438 3.90625 C 187.59375 3.835938 187.664062 3.769531 187.742188 3.703125 C 188.046875 3.445312 188.375 3.238281 188.71875 3.058594 C 189.058594 2.886719 189.414062 2.746094 189.769531 2.625 C 190.125 2.507812 190.484375 2.40625 190.847656 2.328125 C 190.9375 2.308594 191.027344 2.289062 191.117188 2.269531 L 191.148438 2.269531 L 191.183594 2.253906 L 191.253906 2.242188 L 191.273438 2.242188 L 191.246094 2.207031 L 191.164062 2.109375 C 191.046875 1.984375 190.917969 1.855469 190.789062 1.742188 C 190.660156 1.632812 190.515625 1.523438 190.375 1.417969 C 190.234375 1.320312 190.085938 1.226562 189.929688 1.144531 C 189.324219 0.8125 188.640625 0.613281 187.957031 0.570312 C 187.910156 0.570312 187.871094 0.570312 187.828125 0.570312 C 187.78125 0.570312 187.742188 0.570312 187.699219 0.570312 L 187.441406 0.570312 C 187.265625 0.582031 187.097656 0.601562 186.921875 0.628906 C 186.839844 0.640625 186.757812 0.660156 186.671875 0.679688 C 186.589844 0.703125 186.503906 0.726562 186.421875 0.746094 C 186.335938 0.773438 186.257812 0.800781 186.175781 0.828125 L 186.050781 0.875 L 185.996094 0.902344 C 185.996094 0.902344 185.957031 0.914062 185.9375 0.925781 C 185.613281 1.058594 185.3125 1.234375 185.019531 1.433594 C 184.730469 1.632812 184.453125 1.851562 184.1875 2.089844 C 183.921875 2.328125 183.679688 2.59375 183.441406 2.867188 C 183.324219 3.003906 183.207031 3.144531 183.097656 3.285156 C 182.988281 3.429688 182.878906 3.578125 182.773438 3.722656 C 182.5625 4.019531 182.355469 4.328125 182.144531 4.636719 C 182.039062 4.792969 181.929688 4.945312 181.820312 5.097656 C 181.710938 5.25 181.601562 5.402344 181.484375 5.554688 C 181.3125 5.78125 181.128906 6 180.9375 6.199219 C 180.742188 6.40625 180.542969 6.589844 180.335938 6.769531 L 180.296875 6.804688 L 180.257812 6.835938 L 180.183594 6.894531 C 180.183594 6.894531 180.128906 6.9375 180.097656 6.957031 L 180.015625 7.015625 C 179.90625 7.09375 179.792969 7.167969 179.679688 7.234375 C 179.5625 7.300781 179.453125 7.359375 179.335938 7.421875 C 179.21875 7.472656 179.109375 7.527344 178.996094 7.574219 C 178.761719 7.667969 178.535156 7.746094 178.304688 7.800781 C 178.070312 7.851562 177.847656 7.890625 177.613281 7.898438 C 177.386719 7.90625 177.15625 7.886719 176.941406 7.820312 C 176.832031 7.785156 176.730469 7.738281 176.632812 7.679688 C 176.535156 7.621094 176.453125 7.539062 176.382812 7.453125 C 176.363281 7.433594 176.347656 7.40625 176.332031 7.386719 C 176.316406 7.367188 176.296875 7.339844 176.285156 7.3125 C 176.273438 7.289062 176.257812 7.269531 176.246094 7.242188 C 176.234375 7.214844 176.226562 7.195312 176.214844 7.167969 C 176.175781 7.070312 176.15625 6.96875 176.148438 6.871094 C 176.144531 6.777344 176.148438 6.683594 176.148438 6.597656 C 176.15625 6.511719 176.175781 6.429688 176.195312 6.351562 C 176.234375 6.199219 176.285156 6.066406 176.335938 5.945312 C 176.386719 5.828125 176.445312 5.722656 176.496094 5.632812 C 176.523438 5.589844 176.550781 5.546875 176.574219 5.507812 C 176.601562 5.46875 176.625 5.433594 176.644531 5.402344 C 176.671875 5.367188 176.691406 5.34375 176.710938 5.316406 C 176.730469 5.289062 176.75 5.261719 176.769531 5.242188 C 176.839844 5.15625 176.886719 5.125 176.90625 5.128906 C 176.917969 5.144531 176.90625 5.195312 176.867188 5.296875 C 176.851562 5.324219 176.847656 5.347656 176.832031 5.382812 C 176.820312 5.414062 176.808594 5.449219 176.792969 5.480469 L 176.75 5.59375 C 176.730469 5.632812 176.71875 5.679688 176.699219 5.726562 C 176.660156 5.820312 176.625 5.925781 176.589844 6.039062 C 176.554688 6.152344 176.523438 6.277344 176.503906 6.410156 C 176.496094 6.476562 176.492188 6.542969 176.484375 6.617188 C 176.484375 6.683594 176.484375 6.757812 176.496094 6.824219 C 176.523438 6.960938 176.574219 7.089844 176.671875 7.1875 C 176.761719 7.289062 176.898438 7.359375 177.058594 7.402344 C 177.21875 7.441406 177.402344 7.445312 177.59375 7.433594 C 177.789062 7.421875 177.988281 7.378906 178.1875 7.320312 C 178.394531 7.261719 178.59375 7.1875 178.808594 7.09375 C 178.910156 7.046875 179.015625 6.996094 179.117188 6.941406 C 179.21875 6.890625 179.324219 6.828125 179.421875 6.769531 C 179.523438 6.710938 179.621094 6.644531 179.71875 6.570312 L 179.789062 6.515625 C 179.789062 6.515625 179.839844 6.484375 179.859375 6.464844 L 179.929688 6.40625 L 179.96875 6.378906 L 180 6.34375 C 180.1875 6.183594 180.375 6.007812 180.550781 5.8125 C 180.722656 5.621094 180.898438 5.414062 181.058594 5.203125 C 181.503906 4.632812 181.898438 4 182.335938 3.390625 C 182.445312 3.238281 182.554688 3.085938 182.671875 2.933594 C 182.789062 2.78125 182.902344 2.632812 183.035156 2.488281 C 183.285156 2.195312 183.542969 1.921875 183.828125 1.664062 C 184.109375 1.40625 184.40625 1.167969 184.722656 0.953125 C 185.039062 0.742188 185.375 0.554688 185.730469 0.402344 C 185.75 0.390625 185.773438 0.382812 185.792969 0.375 L 185.859375 0.347656 L 185.996094 0.296875 C 186.085938 0.261719 186.175781 0.238281 186.273438 0.203125 C 186.363281 0.175781 186.460938 0.148438 186.550781 0.128906 C 186.644531 0.109375 186.738281 0.0898438 186.832031 0.0703125 C 187.019531 0.0390625 187.214844 0.015625 187.40625 0.0117188 L 187.699219 0.0117188 C 187.742188 0.00390625 187.792969 0.0117188 187.839844 0.0117188 C 187.886719 0.0117188 187.9375 0.0117188 187.980469 0.015625 C 188.75 0.0625 189.503906 0.289062 190.183594 0.65625 C 190.347656 0.746094 190.515625 0.847656 190.671875 0.960938 C 190.832031 1.074219 190.980469 1.191406 191.128906 1.320312 C 191.277344 1.445312 191.414062 1.585938 191.550781 1.730469 L 191.644531 1.84375 C 191.679688 1.882812 191.710938 1.917969 191.742188 1.957031 C 191.773438 1.996094 191.800781 2.035156 191.832031 2.070312 C 191.851562 2.09375 191.871094 2.117188 191.890625 2.140625 C 191.910156 2.140625 191.929688 2.140625 191.949219 2.140625 C 192.128906 2.121094 192.316406 2.101562 192.496094 2.089844 L 192.773438 2.0625 C 192.867188 2.054688 192.957031 2.050781 193.050781 2.042969 C 194.515625 1.941406 195.976562 1.902344 197.433594 1.871094 C 198.890625 1.84375 200.347656 1.828125 201.8125 1.828125 C 203.273438 1.828125 204.730469 1.828125 206.1875 1.851562 C 206.917969 1.855469 207.644531 1.863281 208.375 1.875 L 208.921875 1.875 L 209.058594 1.890625 L 309.933594 1.890625 C 312.117188 1.890625 314.089844 1.921875 315.523438 1.96875 C 316.007812 1.988281 316.425781 2.003906 316.773438 2.027344 C 316.839844 1.796875 317.042969 1.625 317.296875 1.625 C 317.59375 1.625 317.832031 1.871094 317.839844 2.167969 L 317.839844 2.183594 C 317.839844 2.488281 317.59375 2.738281 317.296875 2.738281 Z M 191.9375 3.417969 C 191.890625 3.257812 191.832031 3.097656 191.761719 2.945312 C 191.742188 2.90625 191.722656 2.871094 191.703125 2.832031 L 191.671875 2.78125 C 191.671875 2.78125 191.652344 2.746094 191.644531 2.734375 L 191.621094 2.734375 C 191.621094 2.734375 191.574219 2.738281 191.554688 2.746094 L 191.492188 2.757812 L 191.363281 2.785156 L 191.296875 2.800781 L 191.265625 2.800781 L 191.234375 2.8125 C 191.144531 2.832031 191.058594 2.851562 190.96875 2.871094 C 190.621094 2.953125 190.273438 3.050781 189.9375 3.15625 C 189.601562 3.269531 189.273438 3.402344 188.957031 3.554688 C 188.644531 3.714844 188.347656 3.902344 188.089844 4.121094 C 187.832031 4.347656 187.621094 4.605469 187.472656 4.902344 C 187.433594 4.976562 187.402344 5.058594 187.375 5.128906 C 187.347656 5.210938 187.324219 5.289062 187.304688 5.367188 C 187.285156 5.449219 187.273438 5.527344 187.265625 5.613281 C 187.257812 5.699219 187.253906 5.789062 187.253906 5.867188 C 187.253906 5.886719 187.253906 5.90625 187.253906 5.925781 L 187.253906 5.984375 C 187.253906 6.027344 187.253906 6.066406 187.265625 6.105469 C 187.273438 6.183594 187.285156 6.265625 187.3125 6.339844 C 187.347656 6.492188 187.414062 6.625 187.503906 6.738281 C 187.59375 6.847656 187.703125 6.941406 187.839844 7.015625 C 187.976562 7.089844 188.125 7.136719 188.277344 7.160156 C 188.433594 7.1875 188.601562 7.203125 188.769531 7.195312 C 188.9375 7.195312 189.105469 7.167969 189.273438 7.136719 C 189.609375 7.070312 189.929688 6.957031 190.234375 6.796875 C 190.3125 6.757812 190.382812 6.714844 190.453125 6.671875 C 190.492188 6.648438 190.523438 6.625 190.554688 6.605469 C 190.574219 6.589844 190.589844 6.578125 190.609375 6.5625 L 190.660156 6.523438 C 190.792969 6.425781 190.929688 6.3125 191.050781 6.191406 C 191.175781 6.074219 191.285156 5.941406 191.386719 5.808594 C 191.492188 5.667969 191.582031 5.523438 191.664062 5.375 C 191.828125 5.078125 191.9375 4.746094 191.988281 4.40625 C 192.039062 4.066406 192.019531 3.730469 191.9375 3.402344 Z M 191.9375 3.417969 "/></g></g></svg>