<svg xmlns="http://www.w3.org/2000/svg" xmlns:xlink="http://www.w3.org/1999/xlink" width="164" zoomAndPan="magnify" viewBox="0 0 123 19.5" height="26" preserveAspectRatio="xMidYMid meet" version="1.2"><defs><clipPath id="9d98530c0c"><path d="M 1.539062 0 L 120.730469 0 L 120.730469 19 L 1.539062 19 Z M 1.539062 0 "/></clipPath></defs><g id="1c1d8be358"><g clip-rule="nonzero" clip-path="url(#9d98530c0c)"><path style=" stroke:none;fill-rule:nonzero;fill:#a92344;fill-opacity:1;" d="M 21.039062 7.582031 L 16.648438 11.859375 C 16.554688 11.949219 16.515625 12.078125 16.535156 12.203125 L 17.570312 18.246094 C 17.625 18.5625 17.292969 18.804688 17.007812 18.65625 L 11.582031 15.804688 C 11.46875 15.742188 11.335938 15.742188 11.222656 15.804688 L 5.796875 18.65625 C 5.511719 18.804688 5.179688 18.5625 5.230469 18.246094 L 6.269531 12.203125 C 6.289062 12.078125 6.25 11.949219 6.15625 11.859375 L 1.765625 7.582031 C 1.535156 7.355469 1.664062 6.964844 1.980469 6.921875 L 8.046875 6.039062 C 8.175781 6.019531 8.285156 5.941406 8.339844 5.828125 L 11.054688 0.328125 C 11.195312 0.0390625 11.609375 0.0390625 11.75 0.328125 L 14.464844 5.828125 C 14.519531 5.941406 14.628906 6.019531 14.753906 6.039062 L 20.824219 6.921875 C 21.140625 6.964844 21.269531 7.355469 21.039062 7.582031 Z M 45.6875 6.921875 L 39.621094 6.039062 C 39.496094 6.019531 39.386719 5.941406 39.328125 5.828125 L 36.617188 0.328125 C 36.472656 0.0390625 36.0625 0.0390625 35.921875 0.328125 L 33.207031 5.828125 C 33.148438 5.941406 33.039062 6.019531 32.914062 6.039062 L 26.847656 6.921875 C 26.527344 6.964844 26.402344 7.355469 26.632812 7.582031 L 31.023438 11.859375 C 31.113281 11.949219 31.15625 12.078125 31.132812 12.203125 L 30.097656 18.246094 C 30.042969 18.5625 30.375 18.804688 30.660156 18.65625 L 36.085938 15.804688 C 36.199219 15.742188 36.335938 15.742188 36.449219 15.804688 L 41.875 18.65625 C 42.160156 18.804688 42.492188 18.5625 42.4375 18.246094 L 41.402344 12.203125 C 41.378906 12.078125 41.421875 11.949219 41.511719 11.859375 L 45.902344 7.582031 C 46.132812 7.355469 46.003906 6.964844 45.6875 6.921875 Z M 70.554688 6.921875 L 64.488281 6.039062 C 64.359375 6.019531 64.25 5.941406 64.195312 5.828125 L 61.480469 0.328125 C 61.339844 0.0390625 60.929688 0.0390625 60.785156 0.328125 L 58.074219 5.828125 C 58.015625 5.941406 57.90625 6.019531 57.78125 6.039062 L 51.714844 6.921875 C 51.394531 6.964844 51.269531 7.355469 51.5 7.582031 L 55.886719 11.859375 C 55.980469 11.949219 56.023438 12.078125 56 12.203125 L 54.964844 18.246094 C 54.910156 18.5625 55.242188 18.804688 55.527344 18.65625 L 60.953125 15.804688 C 61.066406 15.742188 61.199219 15.742188 61.3125 15.804688 L 66.742188 18.65625 C 67.023438 18.804688 67.359375 18.5625 67.304688 18.246094 L 66.265625 12.203125 C 66.246094 12.078125 66.285156 11.949219 66.378906 11.859375 L 70.769531 7.582031 C 71 7.355469 70.871094 6.964844 70.554688 6.921875 Z M 95.421875 6.921875 L 89.355469 6.039062 C 89.226562 6.019531 89.117188 5.941406 89.0625 5.828125 L 86.347656 0.328125 C 86.207031 0.0390625 85.792969 0.0390625 85.652344 0.328125 L 82.9375 5.828125 C 82.882812 5.941406 82.773438 6.019531 82.648438 6.039062 L 76.578125 6.921875 C 76.261719 6.964844 76.132812 7.355469 76.363281 7.582031 L 80.753906 11.859375 C 80.847656 11.949219 80.886719 12.078125 80.867188 12.203125 L 79.828125 18.246094 C 79.777344 18.5625 80.109375 18.804688 80.394531 18.65625 L 85.820312 15.804688 C 85.933594 15.742188 86.066406 15.742188 86.179688 15.804688 L 91.605469 18.65625 C 91.890625 18.804688 92.222656 18.5625 92.167969 18.246094 L 91.132812 12.203125 C 91.113281 12.078125 91.152344 11.949219 91.246094 11.859375 L 95.632812 7.582031 C 95.863281 7.355469 95.738281 6.964844 95.417969 6.921875 Z M 120.503906 7.582031 C 120.730469 7.355469 120.605469 6.964844 120.289062 6.921875 L 114.21875 6.039062 C 114.09375 6.019531 113.984375 5.941406 113.929688 5.828125 L 111.214844 0.328125 C 111.074219 0.0390625 110.660156 0.0390625 110.519531 0.328125 L 107.804688 5.828125 C 107.75 5.941406 107.640625 6.019531 107.511719 6.039062 L 101.445312 6.921875 C 101.128906 6.964844 101 7.355469 101.230469 7.582031 L 105.621094 11.859375 C 105.710938 11.949219 105.753906 12.078125 105.734375 12.203125 L 104.695312 18.246094 C 104.640625 18.5625 104.976562 18.804688 105.257812 18.65625 L 110.6875 15.804688 C 110.796875 15.742188 110.933594 15.742188 111.046875 15.804688 L 116.472656 18.65625 C 116.757812 18.804688 117.089844 18.5625 117.035156 18.246094 L 116 12.203125 C 115.976562 12.078125 116.019531 11.949219 116.109375 11.859375 L 120.5 7.582031 Z M 120.503906 7.582031 "/></g></g></svg>